ISO-10303-21;
HEADER;
/* Generated by software containing ST-Developer
 * from STEP Tools, Inc. (www.steptools.com) 
 */
/* OPTION: using custom renumber hook */

FILE_DESCRIPTION(
/* description */ ('STEP AP242 Edition 2',
'CAx-IF Rec.Pracs.---Representation and Presentation of Product Manufa
cturing Information (PMI)---4.0---2014-10-13',
'CAx-IF Rec.Pracs.---3D Tessellated Geometry---0.4---2014-09-14','2;1',
'CAx-IF Rec.Pracs.---User Defined Attributes---1.5---2016-08-15'),
/* implementation_level */ '2;1');

FILE_NAME(
/* name */ 'Hackpad - Part 101',
/* time_stamp */ '2026-08-13T13:21:10Z',
/* author */ (''),
/* organization */ (''),
/* preprocessor_version */ 'ST-DEVELOPER v20',
/* originating_system */ 'ONSHAPE BY PTC INC, 1.219',
/* authorisation */ '  ');

FILE_SCHEMA (('AP242_MANAGED_MODEL_BASED_3D_ENGINEERING_MIM_LF { 1 0 10303 442 3 1 4 }'));
ENDSEC;

DATA;
#10=SHAPE_REPRESENTATION_RELATIONSHIP('','',#1267,#11);
#11=ADVANCED_BREP_SHAPE_REPRESENTATION('',(#1265),#2181);
#12=SPHERICAL_SURFACE('',#1373,0.003);
#13=SPHERICAL_SURFACE('',#1375,0.003);
#14=SPHERICAL_SURFACE('',#1381,0.003);
#15=SPHERICAL_SURFACE('',#1383,0.003);
#16=B_SPLINE_CURVE_WITH_KNOTS('',3,(#1939,#1940,#1941,#1942,#1943),
 .UNSPECIFIED.,.F.,.F.,(4,1,4),(0.,0.00118349278823667,0.00236698557647335),
 .UNSPECIFIED.);
#17=B_SPLINE_CURVE_WITH_KNOTS('',3,(#1946,#1947,#1948,#1949,#1950),
 .UNSPECIFIED.,.F.,.F.,(4,1,4),(0.,0.00115436883335747,0.00230873766671493),
 .UNSPECIFIED.);
#18=B_SPLINE_CURVE_WITH_KNOTS('',3,(#1954,#1955,#1956,#1957,#1958),
 .UNSPECIFIED.,.F.,.F.,(4,1,4),(0.,0.00115482743301482,0.00230965486602964),
 .UNSPECIFIED.);
#19=B_SPLINE_CURVE_WITH_KNOTS('',3,(#1962,#1963,#1964,#1965,#1966),
 .UNSPECIFIED.,.F.,.F.,(4,1,4),(0.,0.00118349278823667,0.00236698557647335),
 .UNSPECIFIED.);
#20=B_SPLINE_CURVE_WITH_KNOTS('',3,(#1969,#1970,#1971,#1972,#1973),
 .UNSPECIFIED.,.F.,.F.,(4,1,4),(0.,0.00115436883335747,0.00230873766671493),
 .UNSPECIFIED.);
#21=B_SPLINE_CURVE_WITH_KNOTS('',3,(#1977,#1978,#1979,#1980,#1981),
 .UNSPECIFIED.,.F.,.F.,(4,1,4),(0.,0.00115482743301482,0.00230965486602964),
 .UNSPECIFIED.);
#22=B_SPLINE_CURVE_WITH_KNOTS('',3,(#1985,#1986,#1987,#1988,#1989),
 .UNSPECIFIED.,.F.,.F.,(4,1,4),(0.,0.00118349278823667,0.00236698557647335),
 .UNSPECIFIED.);
#23=B_SPLINE_CURVE_WITH_KNOTS('',3,(#1992,#1993,#1994,#1995,#1996),
 .UNSPECIFIED.,.F.,.F.,(4,1,4),(0.,0.00115436883335747,0.00230873766671493),
 .UNSPECIFIED.);
#24=B_SPLINE_CURVE_WITH_KNOTS('',3,(#2000,#2001,#2002,#2003,#2004),
 .UNSPECIFIED.,.F.,.F.,(4,1,4),(0.,0.00115482743301482,0.00230965486602964),
 .UNSPECIFIED.);
#25=B_SPLINE_CURVE_WITH_KNOTS('',3,(#2011,#2012,#2013,#2014,#2015),
 .UNSPECIFIED.,.F.,.F.,(4,1,4),(0.,0.00115482743301482,0.00230965486602964),
 .UNSPECIFIED.);
#26=B_SPLINE_CURVE_WITH_KNOTS('',3,(#2017,#2018,#2019,#2020,#2021),
 .UNSPECIFIED.,.F.,.F.,(4,1,4),(0.,0.00118349278823667,0.00236698557647335),
 .UNSPECIFIED.);
#27=B_SPLINE_CURVE_WITH_KNOTS('',3,(#2023,#2024,#2025,#2026,#2027),
 .UNSPECIFIED.,.F.,.F.,(4,1,4),(0.,0.00115436883335747,0.00230873766671493),
 .UNSPECIFIED.);
#28=CYLINDRICAL_SURFACE('',#1286,0.00125);
#29=CYLINDRICAL_SURFACE('',#1289,0.00125);
#30=CYLINDRICAL_SURFACE('',#1304,0.00145);
#31=CYLINDRICAL_SURFACE('',#1307,0.00145);
#32=CYLINDRICAL_SURFACE('',#1310,0.00145);
#33=CYLINDRICAL_SURFACE('',#1313,0.00145);
#34=CYLINDRICAL_SURFACE('',#1336,0.003);
#35=CYLINDRICAL_SURFACE('',#1337,0.003);
#36=CYLINDRICAL_SURFACE('',#1339,0.003);
#37=CYLINDRICAL_SURFACE('',#1340,0.003);
#38=CYLINDRICAL_SURFACE('',#1342,0.003);
#39=CYLINDRICAL_SURFACE('',#1343,0.003);
#40=CYLINDRICAL_SURFACE('',#1345,0.003);
#41=CYLINDRICAL_SURFACE('',#1346,0.003);
#42=CYLINDRICAL_SURFACE('',#1348,0.003);
#43=CYLINDRICAL_SURFACE('',#1349,0.003);
#44=CYLINDRICAL_SURFACE('',#1350,0.003);
#45=CYLINDRICAL_SURFACE('',#1351,0.003);
#46=CYLINDRICAL_SURFACE('',#1352,0.00125);
#47=CYLINDRICAL_SURFACE('',#1355,0.00125);
#48=CYLINDRICAL_SURFACE('',#1360,0.00145);
#49=CYLINDRICAL_SURFACE('',#1362,0.00145);
#50=CYLINDRICAL_SURFACE('',#1370,0.003);
#51=CYLINDRICAL_SURFACE('',#1377,0.003);
#52=CYLINDRICAL_SURFACE('',#1379,0.003);
#53=CYLINDRICAL_SURFACE('',#1385,0.003);
#54=CYLINDRICAL_SURFACE('',#1386,0.00145);
#55=CYLINDRICAL_SURFACE('',#1387,0.00145);
#56=CYLINDRICAL_SURFACE('',#1389,0.00125);
#57=CYLINDRICAL_SURFACE('',#1392,0.00125);
#58=LINE('',#1768,#166);
#59=LINE('',#1772,#167);
#60=LINE('',#1776,#168);
#61=LINE('',#1780,#169);
#62=LINE('',#1782,#170);
#63=LINE('',#1784,#171);
#64=LINE('',#1786,#172);
#65=LINE('',#1788,#173);
#66=LINE('',#1790,#174);
#67=LINE('',#1793,#175);
#68=LINE('',#1796,#176);
#69=LINE('',#1800,#177);
#70=LINE('',#1804,#178);
#71=LINE('',#1807,#179);
#72=LINE('',#1809,#180);
#73=LINE('',#1813,#181);
#74=LINE('',#1817,#182);
#75=LINE('',#1821,#183);
#76=LINE('',#1827,#184);
#77=LINE('',#1829,#185);
#78=LINE('',#1831,#186);
#79=LINE('',#1834,#187);
#80=LINE('',#1836,#188);
#81=LINE('',#1841,#189);
#82=LINE('',#1848,#190);
#83=LINE('',#1852,#191);
#84=LINE('',#1854,#192);
#85=LINE('',#1857,#193);
#86=LINE('',#1859,#194);
#87=LINE('',#1861,#195);
#88=LINE('',#1865,#196);
#89=LINE('',#1866,#197);
#90=LINE('',#1867,#198);
#91=LINE('',#1871,#199);
#92=LINE('',#1873,#200);
#93=LINE('',#1876,#201);
#94=LINE('',#1878,#202);
#95=LINE('',#1880,#203);
#96=LINE('',#1882,#204);
#97=LINE('',#1885,#205);
#98=LINE('',#1886,#206);
#99=LINE('',#1888,#207);
#100=LINE('',#1891,#208);
#101=LINE('',#1892,#209);
#102=LINE('',#1894,#210);
#103=LINE('',#1896,#211);
#104=LINE('',#1898,#212);
#105=LINE('',#1900,#213);
#106=LINE('',#1903,#214);
#107=LINE('',#1905,#215);
#108=LINE('',#1907,#216);
#109=LINE('',#1909,#217);
#110=LINE('',#1912,#218);
#111=LINE('',#1913,#219);
#112=LINE('',#1915,#220);
#113=LINE('',#1918,#221);
#114=LINE('',#1920,#222);
#115=LINE('',#1922,#223);
#116=LINE('',#1924,#224);
#117=LINE('',#1926,#225);
#118=LINE('',#1928,#226);
#119=LINE('',#1930,#227);
#120=LINE('',#1933,#228);
#121=LINE('',#1935,#229);
#122=LINE('',#1937,#230);
#123=LINE('',#2031,#231);
#124=LINE('',#2032,#232);
#125=LINE('',#2033,#233);
#126=LINE('',#2034,#234);
#127=LINE('',#2036,#235);
#128=LINE('',#2038,#236);
#129=LINE('',#2040,#237);
#130=LINE('',#2042,#238);
#131=LINE('',#2044,#239);
#132=LINE('',#2046,#240);
#133=LINE('',#2048,#241);
#134=LINE('',#2049,#242);
#135=LINE('',#2061,#243);
#136=LINE('',#2069,#244);
#137=LINE('',#2070,#245);
#138=LINE('',#2088,#246);
#139=LINE('',#2092,#247);
#140=LINE('',#2094,#248);
#141=LINE('',#2096,#249);
#142=LINE('',#2098,#250);
#143=LINE('',#2102,#251);
#144=LINE('',#2105,#252);
#145=LINE('',#2106,#253);
#146=LINE('',#2108,#254);
#147=LINE('',#2110,#255);
#148=LINE('',#2113,#256);
#149=LINE('',#2114,#257);
#150=LINE('',#2116,#258);
#151=LINE('',#2120,#259);
#152=LINE('',#2122,#260);
#153=LINE('',#2126,#261);
#154=LINE('',#2128,#262);
#155=LINE('',#2132,#263);
#156=LINE('',#2135,#264);
#157=LINE('',#2139,#265);
#158=LINE('',#2143,#266);
#159=LINE('',#2161,#267);
#160=LINE('',#2162,#268);
#161=LINE('',#2164,#269);
#162=LINE('',#2165,#270);
#163=LINE('',#2170,#271);
#164=LINE('',#2172,#272);
#165=LINE('',#2174,#273);
#166=VECTOR('',#1403,1.);
#167=VECTOR('',#1406,1.);
#168=VECTOR('',#1409,1.);
#169=VECTOR('',#1412,1.);
#170=VECTOR('',#1413,1.);
#171=VECTOR('',#1414,1.);
#172=VECTOR('',#1415,1.);
#173=VECTOR('',#1416,1.);
#174=VECTOR('',#1419,1.);
#175=VECTOR('',#1420,1.);
#176=VECTOR('',#1423,1.);
#177=VECTOR('',#1426,1.);
#178=VECTOR('',#1429,1.);
#179=VECTOR('',#1432,1.);
#180=VECTOR('',#1433,1.);
#181=VECTOR('',#1436,1.);
#182=VECTOR('',#1439,1.);
#183=VECTOR('',#1442,1.);
#184=VECTOR('',#1449,1.);
#185=VECTOR('',#1450,1.);
#186=VECTOR('',#1451,1.);
#187=VECTOR('',#1454,1.);
#188=VECTOR('',#1457,1.);
#189=VECTOR('',#1460,1.);
#190=VECTOR('',#1467,1.);
#191=VECTOR('',#1470,1.);
#192=VECTOR('',#1473,1.);
#193=VECTOR('',#1474,1.);
#194=VECTOR('',#1475,1.);
#195=VECTOR('',#1476,1.);
#196=VECTOR('',#1479,1.);
#197=VECTOR('',#1480,1.);
#198=VECTOR('',#1481,1.);
#199=VECTOR('',#1484,1.);
#200=VECTOR('',#1487,1.);
#201=VECTOR('',#1488,1.);
#202=VECTOR('',#1489,1.);
#203=VECTOR('',#1490,1.);
#204=VECTOR('',#1493,1.);
#205=VECTOR('',#1494,1.);
#206=VECTOR('',#1495,1.);
#207=VECTOR('',#1498,1.);
#208=VECTOR('',#1499,1.);
#209=VECTOR('',#1500,1.);
#210=VECTOR('',#1503,1.);
#211=VECTOR('',#1504,1.);
#212=VECTOR('',#1505,1.);
#213=VECTOR('',#1508,1.);
#214=VECTOR('',#1509,1.);
#215=VECTOR('',#1510,1.);
#216=VECTOR('',#1511,1.);
#217=VECTOR('',#1514,1.);
#218=VECTOR('',#1515,1.);
#219=VECTOR('',#1516,1.);
#220=VECTOR('',#1519,1.);
#221=VECTOR('',#1520,1.);
#222=VECTOR('',#1521,1.);
#223=VECTOR('',#1522,1.);
#224=VECTOR('',#1525,1.);
#225=VECTOR('',#1526,1.);
#226=VECTOR('',#1527,1.);
#227=VECTOR('',#1530,1.);
#228=VECTOR('',#1531,1.);
#229=VECTOR('',#1532,1.);
#230=VECTOR('',#1533,1.);
#231=VECTOR('',#1560,1.);
#232=VECTOR('',#1561,1.);
#233=VECTOR('',#1562,1.);
#234=VECTOR('',#1563,1.);
#235=VECTOR('',#1566,1.);
#236=VECTOR('',#1567,1.);
#237=VECTOR('',#1568,1.);
#238=VECTOR('',#1571,1.);
#239=VECTOR('',#1572,1.);
#240=VECTOR('',#1573,1.);
#241=VECTOR('',#1576,1.);
#242=VECTOR('',#1577,1.);
#243=VECTOR('',#1600,1.);
#244=VECTOR('',#1611,1.);
#245=VECTOR('',#1612,1.);
#246=VECTOR('',#1647,1.);
#247=VECTOR('',#1650,1.);
#248=VECTOR('',#1653,1.);
#249=VECTOR('',#1654,1.);
#250=VECTOR('',#1657,1.);
#251=VECTOR('',#1662,1.);
#252=VECTOR('',#1663,1.);
#253=VECTOR('',#1664,1.);
#254=VECTOR('',#1667,1.);
#255=VECTOR('',#1670,1.);
#256=VECTOR('',#1671,1.);
#257=VECTOR('',#1672,1.);
#258=VECTOR('',#1675,1.);
#259=VECTOR('',#1678,1.);
#260=VECTOR('',#1681,1.);
#261=VECTOR('',#1684,1.);
#262=VECTOR('',#1687,1.);
#263=VECTOR('',#1692,1.);
#264=VECTOR('',#1695,1.);
#265=VECTOR('',#1698,1.);
#266=VECTOR('',#1701,1.);
#267=VECTOR('',#1736,1.);
#268=VECTOR('',#1737,1.);
#269=VECTOR('',#1740,1.);
#270=VECTOR('',#1741,1.);
#271=VECTOR('',#1748,1.);
#272=VECTOR('',#1751,1.);
#273=VECTOR('',#1752,1.);
#274=ORIENTED_EDGE('',*,*,#638,.F.);
#275=ORIENTED_EDGE('',*,*,#639,.T.);
#276=ORIENTED_EDGE('',*,*,#640,.T.);
#277=ORIENTED_EDGE('',*,*,#641,.T.);
#278=ORIENTED_EDGE('',*,*,#642,.T.);
#279=ORIENTED_EDGE('',*,*,#643,.T.);
#280=ORIENTED_EDGE('',*,*,#644,.F.);
#281=ORIENTED_EDGE('',*,*,#645,.T.);
#282=ORIENTED_EDGE('',*,*,#646,.T.);
#283=ORIENTED_EDGE('',*,*,#647,.F.);
#284=ORIENTED_EDGE('',*,*,#648,.T.);
#285=ORIENTED_EDGE('',*,*,#649,.T.);
#286=ORIENTED_EDGE('',*,*,#650,.T.);
#287=ORIENTED_EDGE('',*,*,#651,.T.);
#288=ORIENTED_EDGE('',*,*,#649,.F.);
#289=ORIENTED_EDGE('',*,*,#652,.T.);
#290=ORIENTED_EDGE('',*,*,#653,.F.);
#291=ORIENTED_EDGE('',*,*,#654,.T.);
#292=ORIENTED_EDGE('',*,*,#655,.T.);
#293=ORIENTED_EDGE('',*,*,#656,.T.);
#294=ORIENTED_EDGE('',*,*,#657,.T.);
#295=ORIENTED_EDGE('',*,*,#658,.T.);
#296=ORIENTED_EDGE('',*,*,#645,.F.);
#297=ORIENTED_EDGE('',*,*,#659,.T.);
#298=ORIENTED_EDGE('',*,*,#660,.T.);
#299=ORIENTED_EDGE('',*,*,#661,.T.);
#300=ORIENTED_EDGE('',*,*,#662,.F.);
#301=ORIENTED_EDGE('',*,*,#663,.T.);
#302=ORIENTED_EDGE('',*,*,#664,.F.);
#303=ORIENTED_EDGE('',*,*,#665,.T.);
#304=ORIENTED_EDGE('',*,*,#666,.T.);
#305=ORIENTED_EDGE('',*,*,#667,.T.);
#306=ORIENTED_EDGE('',*,*,#668,.F.);
#307=ORIENTED_EDGE('',*,*,#650,.F.);
#308=ORIENTED_EDGE('',*,*,#669,.T.);
#309=ORIENTED_EDGE('',*,*,#670,.F.);
#310=ORIENTED_EDGE('',*,*,#671,.T.);
#311=ORIENTED_EDGE('',*,*,#660,.F.);
#312=ORIENTED_EDGE('',*,*,#672,.F.);
#313=ORIENTED_EDGE('',*,*,#673,.F.);
#314=ORIENTED_EDGE('',*,*,#674,.F.);
#315=ORIENTED_EDGE('',*,*,#675,.F.);
#316=ORIENTED_EDGE('',*,*,#676,.T.);
#317=ORIENTED_EDGE('',*,*,#677,.F.);
#318=ORIENTED_EDGE('',*,*,#678,.F.);
#319=ORIENTED_EDGE('',*,*,#679,.T.);
#320=ORIENTED_EDGE('',*,*,#680,.F.);
#321=ORIENTED_EDGE('',*,*,#681,.F.);
#322=ORIENTED_EDGE('',*,*,#682,.T.);
#323=ORIENTED_EDGE('',*,*,#683,.T.);
#324=ORIENTED_EDGE('',*,*,#684,.F.);
#325=ORIENTED_EDGE('',*,*,#685,.T.);
#326=ORIENTED_EDGE('',*,*,#686,.T.);
#327=ORIENTED_EDGE('',*,*,#687,.T.);
#328=ORIENTED_EDGE('',*,*,#677,.T.);
#329=ORIENTED_EDGE('',*,*,#688,.T.);
#330=ORIENTED_EDGE('',*,*,#680,.T.);
#331=ORIENTED_EDGE('',*,*,#689,.T.);
#332=ORIENTED_EDGE('',*,*,#690,.T.);
#333=ORIENTED_EDGE('',*,*,#691,.T.);
#334=ORIENTED_EDGE('',*,*,#692,.T.);
#335=ORIENTED_EDGE('',*,*,#693,.T.);
#336=ORIENTED_EDGE('',*,*,#694,.T.);
#337=ORIENTED_EDGE('',*,*,#695,.T.);
#338=ORIENTED_EDGE('',*,*,#696,.T.);
#339=ORIENTED_EDGE('',*,*,#697,.T.);
#340=ORIENTED_EDGE('',*,*,#662,.T.);
#341=ORIENTED_EDGE('',*,*,#698,.T.);
#342=ORIENTED_EDGE('',*,*,#699,.F.);
#343=ORIENTED_EDGE('',*,*,#700,.T.);
#344=ORIENTED_EDGE('',*,*,#666,.F.);
#345=ORIENTED_EDGE('',*,*,#701,.T.);
#346=ORIENTED_EDGE('',*,*,#653,.T.);
#347=ORIENTED_EDGE('',*,*,#702,.T.);
#348=ORIENTED_EDGE('',*,*,#703,.T.);
#349=ORIENTED_EDGE('',*,*,#704,.T.);
#350=ORIENTED_EDGE('',*,*,#705,.T.);
#351=ORIENTED_EDGE('',*,*,#706,.T.);
#352=ORIENTED_EDGE('',*,*,#707,.T.);
#353=ORIENTED_EDGE('',*,*,#708,.F.);
#354=ORIENTED_EDGE('',*,*,#709,.T.);
#355=ORIENTED_EDGE('',*,*,#710,.T.);
#356=ORIENTED_EDGE('',*,*,#655,.F.);
#357=ORIENTED_EDGE('',*,*,#711,.T.);
#358=ORIENTED_EDGE('',*,*,#712,.T.);
#359=ORIENTED_EDGE('',*,*,#713,.T.);
#360=ORIENTED_EDGE('',*,*,#714,.T.);
#361=ORIENTED_EDGE('',*,*,#715,.T.);
#362=ORIENTED_EDGE('',*,*,#657,.F.);
#363=ORIENTED_EDGE('',*,*,#716,.T.);
#364=ORIENTED_EDGE('',*,*,#717,.F.);
#365=ORIENTED_EDGE('',*,*,#718,.T.);
#366=ORIENTED_EDGE('',*,*,#719,.T.);
#367=ORIENTED_EDGE('',*,*,#720,.T.);
#368=ORIENTED_EDGE('',*,*,#721,.T.);
#369=ORIENTED_EDGE('',*,*,#722,.T.);
#370=ORIENTED_EDGE('',*,*,#723,.T.);
#371=ORIENTED_EDGE('',*,*,#724,.T.);
#372=ORIENTED_EDGE('',*,*,#725,.F.);
#373=ORIENTED_EDGE('',*,*,#726,.T.);
#374=ORIENTED_EDGE('',*,*,#727,.T.);
#375=ORIENTED_EDGE('',*,*,#728,.T.);
#376=ORIENTED_EDGE('',*,*,#729,.T.);
#377=ORIENTED_EDGE('',*,*,#730,.F.);
#378=ORIENTED_EDGE('',*,*,#731,.T.);
#379=ORIENTED_EDGE('',*,*,#732,.T.);
#380=ORIENTED_EDGE('',*,*,#733,.T.);
#381=ORIENTED_EDGE('',*,*,#734,.T.);
#382=ORIENTED_EDGE('',*,*,#735,.F.);
#383=ORIENTED_EDGE('',*,*,#736,.T.);
#384=ORIENTED_EDGE('',*,*,#737,.T.);
#385=ORIENTED_EDGE('',*,*,#738,.F.);
#386=ORIENTED_EDGE('',*,*,#739,.T.);
#387=ORIENTED_EDGE('',*,*,#740,.T.);
#388=ORIENTED_EDGE('',*,*,#741,.T.);
#389=ORIENTED_EDGE('',*,*,#742,.T.);
#390=ORIENTED_EDGE('',*,*,#735,.T.);
#391=ORIENTED_EDGE('',*,*,#743,.T.);
#392=ORIENTED_EDGE('',*,*,#738,.T.);
#393=ORIENTED_EDGE('',*,*,#744,.T.);
#394=ORIENTED_EDGE('',*,*,#725,.T.);
#395=ORIENTED_EDGE('',*,*,#745,.T.);
#396=ORIENTED_EDGE('',*,*,#730,.T.);
#397=ORIENTED_EDGE('',*,*,#746,.T.);
#398=ORIENTED_EDGE('',*,*,#747,.F.);
#399=ORIENTED_EDGE('',*,*,#748,.F.);
#400=ORIENTED_EDGE('',*,*,#749,.F.);
#401=ORIENTED_EDGE('',*,*,#684,.T.);
#402=ORIENTED_EDGE('',*,*,#750,.F.);
#403=ORIENTED_EDGE('',*,*,#751,.F.);
#404=ORIENTED_EDGE('',*,*,#752,.F.);
#405=ORIENTED_EDGE('',*,*,#748,.T.);
#406=ORIENTED_EDGE('',*,*,#751,.T.);
#407=ORIENTED_EDGE('',*,*,#753,.T.);
#408=ORIENTED_EDGE('',*,*,#682,.F.);
#409=ORIENTED_EDGE('',*,*,#754,.T.);
#410=ORIENTED_EDGE('',*,*,#717,.T.);
#411=ORIENTED_EDGE('',*,*,#755,.T.);
#412=ORIENTED_EDGE('',*,*,#709,.F.);
#413=ORIENTED_EDGE('',*,*,#756,.T.);
#414=ORIENTED_EDGE('',*,*,#703,.F.);
#415=ORIENTED_EDGE('',*,*,#757,.T.);
#416=ORIENTED_EDGE('',*,*,#647,.T.);
#417=ORIENTED_EDGE('',*,*,#758,.T.);
#418=ORIENTED_EDGE('',*,*,#737,.F.);
#419=ORIENTED_EDGE('',*,*,#732,.F.);
#420=ORIENTED_EDGE('',*,*,#727,.F.);
#421=ORIENTED_EDGE('',*,*,#742,.F.);
#422=ORIENTED_EDGE('',*,*,#685,.F.);
#423=ORIENTED_EDGE('',*,*,#749,.T.);
#424=ORIENTED_EDGE('',*,*,#752,.T.);
#425=ORIENTED_EDGE('',*,*,#754,.F.);
#426=ORIENTED_EDGE('',*,*,#683,.F.);
#427=ORIENTED_EDGE('',*,*,#753,.F.);
#428=ORIENTED_EDGE('',*,*,#750,.T.);
#429=ORIENTED_EDGE('',*,*,#747,.T.);
#430=ORIENTED_EDGE('',*,*,#715,.F.);
#431=ORIENTED_EDGE('',*,*,#759,.T.);
#432=ORIENTED_EDGE('',*,*,#695,.F.);
#433=ORIENTED_EDGE('',*,*,#760,.T.);
#434=ORIENTED_EDGE('',*,*,#708,.T.);
#435=ORIENTED_EDGE('',*,*,#761,.T.);
#436=ORIENTED_EDGE('',*,*,#722,.F.);
#437=ORIENTED_EDGE('',*,*,#762,.T.);
#438=ORIENTED_EDGE('',*,*,#763,.F.);
#439=ORIENTED_EDGE('',*,*,#764,.T.);
#440=ORIENTED_EDGE('',*,*,#696,.F.);
#441=ORIENTED_EDGE('',*,*,#765,.T.);
#442=ORIENTED_EDGE('',*,*,#670,.T.);
#443=ORIENTED_EDGE('',*,*,#766,.T.);
#444=ORIENTED_EDGE('',*,*,#699,.T.);
#445=ORIENTED_EDGE('',*,*,#767,.T.);
#446=ORIENTED_EDGE('',*,*,#664,.T.);
#447=ORIENTED_EDGE('',*,*,#768,.T.);
#448=ORIENTED_EDGE('',*,*,#763,.T.);
#449=ORIENTED_EDGE('',*,*,#769,.T.);
#450=ORIENTED_EDGE('',*,*,#755,.F.);
#451=ORIENTED_EDGE('',*,*,#716,.F.);
#452=ORIENTED_EDGE('',*,*,#656,.F.);
#453=ORIENTED_EDGE('',*,*,#710,.F.);
#454=ORIENTED_EDGE('',*,*,#714,.F.);
#455=ORIENTED_EDGE('',*,*,#770,.T.);
#456=ORIENTED_EDGE('',*,*,#692,.F.);
#457=ORIENTED_EDGE('',*,*,#759,.F.);
#458=ORIENTED_EDGE('',*,*,#758,.F.);
#459=ORIENTED_EDGE('',*,*,#646,.F.);
#460=ORIENTED_EDGE('',*,*,#658,.F.);
#461=ORIENTED_EDGE('',*,*,#718,.F.);
#462=ORIENTED_EDGE('',*,*,#721,.F.);
#463=ORIENTED_EDGE('',*,*,#771,.T.);
#464=ORIENTED_EDGE('',*,*,#712,.F.);
#465=ORIENTED_EDGE('',*,*,#762,.F.);
#466=ORIENTED_EDGE('',*,*,#757,.F.);
#467=ORIENTED_EDGE('',*,*,#702,.F.);
#468=ORIENTED_EDGE('',*,*,#652,.F.);
#469=ORIENTED_EDGE('',*,*,#648,.F.);
#470=ORIENTED_EDGE('',*,*,#707,.F.);
#471=ORIENTED_EDGE('',*,*,#772,.T.);
#472=ORIENTED_EDGE('',*,*,#719,.F.);
#473=ORIENTED_EDGE('',*,*,#761,.F.);
#474=ORIENTED_EDGE('',*,*,#756,.F.);
#475=ORIENTED_EDGE('',*,*,#711,.F.);
#476=ORIENTED_EDGE('',*,*,#654,.F.);
#477=ORIENTED_EDGE('',*,*,#704,.F.);
#478=ORIENTED_EDGE('',*,*,#694,.F.);
#479=ORIENTED_EDGE('',*,*,#773,.T.);
#480=ORIENTED_EDGE('',*,*,#705,.F.);
#481=ORIENTED_EDGE('',*,*,#760,.F.);
#482=ORIENTED_EDGE('',*,*,#764,.F.);
#483=ORIENTED_EDGE('',*,*,#768,.F.);
#484=ORIENTED_EDGE('',*,*,#663,.F.);
#485=ORIENTED_EDGE('',*,*,#697,.F.);
#486=ORIENTED_EDGE('',*,*,#661,.F.);
#487=ORIENTED_EDGE('',*,*,#671,.F.);
#488=ORIENTED_EDGE('',*,*,#765,.F.);
#489=ORIENTED_EDGE('',*,*,#698,.F.);
#490=ORIENTED_EDGE('',*,*,#667,.F.);
#491=ORIENTED_EDGE('',*,*,#700,.F.);
#492=ORIENTED_EDGE('',*,*,#766,.F.);
#493=ORIENTED_EDGE('',*,*,#669,.F.);
#494=ORIENTED_EDGE('',*,*,#665,.F.);
#495=ORIENTED_EDGE('',*,*,#769,.F.);
#496=ORIENTED_EDGE('',*,*,#767,.F.);
#497=ORIENTED_EDGE('',*,*,#701,.F.);
#498=ORIENTED_EDGE('',*,*,#774,.F.);
#499=ORIENTED_EDGE('',*,*,#775,.T.);
#500=ORIENTED_EDGE('',*,*,#776,.T.);
#501=ORIENTED_EDGE('',*,*,#686,.F.);
#502=ORIENTED_EDGE('',*,*,#777,.F.);
#503=ORIENTED_EDGE('',*,*,#778,.T.);
#504=ORIENTED_EDGE('',*,*,#774,.T.);
#505=ORIENTED_EDGE('',*,*,#691,.F.);
#506=ORIENTED_EDGE('',*,*,#779,.F.);
#507=ORIENTED_EDGE('',*,*,#780,.T.);
#508=ORIENTED_EDGE('',*,*,#777,.T.);
#509=ORIENTED_EDGE('',*,*,#690,.F.);
#510=ORIENTED_EDGE('',*,*,#781,.F.);
#511=ORIENTED_EDGE('',*,*,#782,.T.);
#512=ORIENTED_EDGE('',*,*,#779,.T.);
#513=ORIENTED_EDGE('',*,*,#689,.F.);
#514=ORIENTED_EDGE('',*,*,#679,.F.);
#515=ORIENTED_EDGE('',*,*,#783,.T.);
#516=ORIENTED_EDGE('',*,*,#681,.T.);
#517=ORIENTED_EDGE('',*,*,#688,.F.);
#518=ORIENTED_EDGE('',*,*,#676,.F.);
#519=ORIENTED_EDGE('',*,*,#784,.F.);
#520=ORIENTED_EDGE('',*,*,#785,.F.);
#521=ORIENTED_EDGE('',*,*,#786,.T.);
#522=ORIENTED_EDGE('',*,*,#674,.T.);
#523=ORIENTED_EDGE('',*,*,#687,.F.);
#524=ORIENTED_EDGE('',*,*,#776,.F.);
#525=ORIENTED_EDGE('',*,*,#787,.T.);
#526=ORIENTED_EDGE('',*,*,#640,.F.);
#527=ORIENTED_EDGE('',*,*,#788,.F.);
#528=ORIENTED_EDGE('',*,*,#789,.T.);
#529=ORIENTED_EDGE('',*,*,#790,.T.);
#530=ORIENTED_EDGE('',*,*,#642,.F.);
#531=ORIENTED_EDGE('',*,*,#791,.F.);
#532=ORIENTED_EDGE('',*,*,#792,.T.);
#533=ORIENTED_EDGE('',*,*,#793,.T.);
#534=ORIENTED_EDGE('',*,*,#641,.F.);
#535=ORIENTED_EDGE('',*,*,#790,.F.);
#536=ORIENTED_EDGE('',*,*,#794,.T.);
#537=ORIENTED_EDGE('',*,*,#791,.T.);
#538=ORIENTED_EDGE('',*,*,#787,.F.);
#539=ORIENTED_EDGE('',*,*,#775,.F.);
#540=ORIENTED_EDGE('',*,*,#778,.F.);
#541=ORIENTED_EDGE('',*,*,#780,.F.);
#542=ORIENTED_EDGE('',*,*,#782,.F.);
#543=ORIENTED_EDGE('',*,*,#795,.T.);
#544=ORIENTED_EDGE('',*,*,#796,.T.);
#545=ORIENTED_EDGE('',*,*,#797,.T.);
#546=ORIENTED_EDGE('',*,*,#789,.F.);
#547=ORIENTED_EDGE('',*,*,#798,.F.);
#548=ORIENTED_EDGE('',*,*,#799,.T.);
#549=ORIENTED_EDGE('',*,*,#800,.T.);
#550=ORIENTED_EDGE('',*,*,#801,.T.);
#551=ORIENTED_EDGE('',*,*,#802,.F.);
#552=ORIENTED_EDGE('',*,*,#792,.F.);
#553=ORIENTED_EDGE('',*,*,#794,.F.);
#554=ORIENTED_EDGE('',*,*,#745,.F.);
#555=ORIENTED_EDGE('',*,*,#724,.F.);
#556=ORIENTED_EDGE('',*,*,#803,.F.);
#557=ORIENTED_EDGE('',*,*,#693,.F.);
#558=ORIENTED_EDGE('',*,*,#804,.F.);
#559=ORIENTED_EDGE('',*,*,#731,.F.);
#560=ORIENTED_EDGE('',*,*,#803,.T.);
#561=ORIENTED_EDGE('',*,*,#723,.F.);
#562=ORIENTED_EDGE('',*,*,#805,.F.);
#563=ORIENTED_EDGE('',*,*,#773,.F.);
#564=ORIENTED_EDGE('',*,*,#804,.T.);
#565=ORIENTED_EDGE('',*,*,#770,.F.);
#566=ORIENTED_EDGE('',*,*,#806,.F.);
#567=ORIENTED_EDGE('',*,*,#728,.F.);
#568=ORIENTED_EDGE('',*,*,#744,.F.);
#569=ORIENTED_EDGE('',*,*,#741,.F.);
#570=ORIENTED_EDGE('',*,*,#807,.F.);
#571=ORIENTED_EDGE('',*,*,#706,.F.);
#572=ORIENTED_EDGE('',*,*,#805,.T.);
#573=ORIENTED_EDGE('',*,*,#726,.F.);
#574=ORIENTED_EDGE('',*,*,#806,.T.);
#575=ORIENTED_EDGE('',*,*,#713,.F.);
#576=ORIENTED_EDGE('',*,*,#808,.F.);
#577=ORIENTED_EDGE('',*,*,#736,.F.);
#578=ORIENTED_EDGE('',*,*,#746,.F.);
#579=ORIENTED_EDGE('',*,*,#729,.F.);
#580=ORIENTED_EDGE('',*,*,#807,.T.);
#581=ORIENTED_EDGE('',*,*,#740,.F.);
#582=ORIENTED_EDGE('',*,*,#809,.F.);
#583=ORIENTED_EDGE('',*,*,#772,.F.);
#584=ORIENTED_EDGE('',*,*,#808,.T.);
#585=ORIENTED_EDGE('',*,*,#771,.F.);
#586=ORIENTED_EDGE('',*,*,#810,.F.);
#587=ORIENTED_EDGE('',*,*,#733,.F.);
#588=ORIENTED_EDGE('',*,*,#743,.F.);
#589=ORIENTED_EDGE('',*,*,#734,.F.);
#590=ORIENTED_EDGE('',*,*,#810,.T.);
#591=ORIENTED_EDGE('',*,*,#720,.F.);
#592=ORIENTED_EDGE('',*,*,#809,.T.);
#593=ORIENTED_EDGE('',*,*,#739,.F.);
#594=ORIENTED_EDGE('',*,*,#811,.T.);
#595=ORIENTED_EDGE('',*,*,#638,.T.);
#596=ORIENTED_EDGE('',*,*,#651,.F.);
#597=ORIENTED_EDGE('',*,*,#668,.T.);
#598=ORIENTED_EDGE('',*,*,#812,.F.);
#599=ORIENTED_EDGE('',*,*,#799,.F.);
#600=ORIENTED_EDGE('',*,*,#659,.F.);
#601=ORIENTED_EDGE('',*,*,#644,.T.);
#602=ORIENTED_EDGE('',*,*,#813,.F.);
#603=ORIENTED_EDGE('',*,*,#801,.F.);
#604=ORIENTED_EDGE('',*,*,#814,.T.);
#605=ORIENTED_EDGE('',*,*,#672,.T.);
#606=ORIENTED_EDGE('',*,*,#673,.T.);
#607=ORIENTED_EDGE('',*,*,#814,.F.);
#608=ORIENTED_EDGE('',*,*,#800,.F.);
#609=ORIENTED_EDGE('',*,*,#812,.T.);
#610=ORIENTED_EDGE('',*,*,#815,.T.);
#611=ORIENTED_EDGE('',*,*,#816,.F.);
#612=ORIENTED_EDGE('',*,*,#795,.F.);
#613=ORIENTED_EDGE('',*,*,#781,.T.);
#614=ORIENTED_EDGE('',*,*,#817,.T.);
#615=ORIENTED_EDGE('',*,*,#818,.F.);
#616=ORIENTED_EDGE('',*,*,#796,.F.);
#617=ORIENTED_EDGE('',*,*,#816,.T.);
#618=ORIENTED_EDGE('',*,*,#819,.T.);
#619=ORIENTED_EDGE('',*,*,#785,.T.);
#620=ORIENTED_EDGE('',*,*,#797,.F.);
#621=ORIENTED_EDGE('',*,*,#818,.T.);
#622=ORIENTED_EDGE('',*,*,#678,.T.);
#623=ORIENTED_EDGE('',*,*,#784,.T.);
#624=ORIENTED_EDGE('',*,*,#675,.T.);
#625=ORIENTED_EDGE('',*,*,#786,.F.);
#626=ORIENTED_EDGE('',*,*,#819,.F.);
#627=ORIENTED_EDGE('',*,*,#817,.F.);
#628=ORIENTED_EDGE('',*,*,#815,.F.);
#629=ORIENTED_EDGE('',*,*,#783,.F.);
#630=ORIENTED_EDGE('',*,*,#643,.F.);
#631=ORIENTED_EDGE('',*,*,#793,.F.);
#632=ORIENTED_EDGE('',*,*,#802,.T.);
#633=ORIENTED_EDGE('',*,*,#813,.T.);
#634=ORIENTED_EDGE('',*,*,#639,.F.);
#635=ORIENTED_EDGE('',*,*,#811,.F.);
#636=ORIENTED_EDGE('',*,*,#798,.T.);
#637=ORIENTED_EDGE('',*,*,#788,.T.);
#638=EDGE_CURVE('',#820,#821,#940,.F.);
#639=EDGE_CURVE('',#820,#822,#58,.T.);
#640=EDGE_CURVE('',#822,#823,#941,.T.);
#641=EDGE_CURVE('',#823,#824,#59,.T.);
#642=EDGE_CURVE('',#824,#825,#942,.T.);
#643=EDGE_CURVE('',#825,#826,#60,.T.);
#644=EDGE_CURVE('',#827,#826,#943,.F.);
#645=EDGE_CURVE('',#827,#828,#61,.T.);
#646=EDGE_CURVE('',#828,#829,#62,.F.);
#647=EDGE_CURVE('',#830,#829,#63,.T.);
#648=EDGE_CURVE('',#830,#831,#64,.T.);
#649=EDGE_CURVE('',#831,#821,#65,.T.);
#650=EDGE_CURVE('',#832,#833,#66,.T.);
#651=EDGE_CURVE('',#833,#821,#67,.F.);
#652=EDGE_CURVE('',#831,#834,#944,.T.);
#653=EDGE_CURVE('',#835,#834,#68,.T.);
#654=EDGE_CURVE('',#835,#836,#945,.T.);
#655=EDGE_CURVE('',#836,#837,#69,.T.);
#656=EDGE_CURVE('',#837,#838,#946,.T.);
#657=EDGE_CURVE('',#838,#839,#70,.T.);
#658=EDGE_CURVE('',#839,#828,#947,.T.);
#659=EDGE_CURVE('',#827,#840,#71,.T.);
#660=EDGE_CURVE('',#840,#841,#72,.T.);
#661=EDGE_CURVE('',#841,#842,#948,.F.);
#662=EDGE_CURVE('',#843,#842,#73,.T.);
#663=EDGE_CURVE('',#843,#844,#949,.F.);
#664=EDGE_CURVE('',#845,#844,#74,.T.);
#665=EDGE_CURVE('',#845,#846,#950,.F.);
#666=EDGE_CURVE('',#846,#847,#75,.T.);
#667=EDGE_CURVE('',#847,#832,#951,.F.);
#668=EDGE_CURVE('',#833,#848,#952,.T.);
#669=EDGE_CURVE('',#832,#849,#76,.T.);
#670=EDGE_CURVE('',#850,#849,#77,.T.);
#671=EDGE_CURVE('',#850,#841,#78,.F.);
#672=EDGE_CURVE('',#851,#840,#953,.T.);
#673=EDGE_CURVE('',#848,#851,#79,.T.);
#674=EDGE_CURVE('',#852,#853,#80,.T.);
#675=EDGE_CURVE('',#854,#852,#954,.F.);
#676=EDGE_CURVE('',#854,#855,#81,.T.);
#677=EDGE_CURVE('',#853,#855,#955,.F.);
#678=EDGE_CURVE('',#856,#857,#956,.F.);
#679=EDGE_CURVE('',#856,#858,#82,.T.);
#680=EDGE_CURVE('',#859,#858,#957,.F.);
#681=EDGE_CURVE('',#857,#859,#83,.T.);
#682=EDGE_CURVE('',#860,#861,#84,.T.);
#683=EDGE_CURVE('',#861,#862,#85,.T.);
#684=EDGE_CURVE('',#863,#862,#86,.T.);
#685=EDGE_CURVE('',#863,#860,#87,.T.);
#686=EDGE_CURVE('',#864,#865,#958,.F.);
#687=EDGE_CURVE('',#865,#853,#88,.T.);
#688=EDGE_CURVE('',#855,#859,#89,.T.);
#689=EDGE_CURVE('',#858,#866,#90,.T.);
#690=EDGE_CURVE('',#866,#867,#959,.F.);
#691=EDGE_CURVE('',#867,#864,#91,.T.);
#692=EDGE_CURVE('',#868,#869,#92,.T.);
#693=EDGE_CURVE('',#869,#870,#93,.F.);
#694=EDGE_CURVE('',#870,#871,#94,.F.);
#695=EDGE_CURVE('',#871,#868,#95,.T.);
#696=EDGE_CURVE('',#872,#873,#96,.T.);
#697=EDGE_CURVE('',#873,#843,#97,.T.);
#698=EDGE_CURVE('',#842,#872,#98,.T.);
#699=EDGE_CURVE('',#874,#875,#99,.T.);
#700=EDGE_CURVE('',#874,#847,#100,.F.);
#701=EDGE_CURVE('',#846,#875,#101,.T.);
#702=EDGE_CURVE('',#834,#876,#102,.F.);
#703=EDGE_CURVE('',#876,#877,#103,.T.);
#704=EDGE_CURVE('',#877,#835,#104,.T.);
#705=EDGE_CURVE('',#878,#879,#105,.T.);
#706=EDGE_CURVE('',#879,#880,#106,.F.);
#707=EDGE_CURVE('',#880,#881,#107,.F.);
#708=EDGE_CURVE('',#878,#881,#108,.T.);
#709=EDGE_CURVE('',#882,#883,#109,.T.);
#710=EDGE_CURVE('',#883,#837,#110,.T.);
#711=EDGE_CURVE('',#836,#882,#111,.F.);
#712=EDGE_CURVE('',#884,#885,#112,.T.);
#713=EDGE_CURVE('',#885,#886,#113,.T.);
#714=EDGE_CURVE('',#886,#887,#114,.F.);
#715=EDGE_CURVE('',#887,#884,#115,.T.);
#716=EDGE_CURVE('',#838,#888,#116,.F.);
#717=EDGE_CURVE('',#889,#888,#117,.T.);
#718=EDGE_CURVE('',#889,#839,#118,.T.);
#719=EDGE_CURVE('',#890,#891,#119,.T.);
#720=EDGE_CURVE('',#891,#892,#120,.T.);
#721=EDGE_CURVE('',#892,#893,#121,.F.);
#722=EDGE_CURVE('',#893,#890,#122,.T.);
#723=EDGE_CURVE('',#894,#895,#16,.T.);
#724=EDGE_CURVE('',#895,#896,#17,.T.);
#725=EDGE_CURVE('',#897,#896,#960,.T.);
#726=EDGE_CURVE('',#897,#894,#18,.T.);
#727=EDGE_CURVE('',#898,#898,#961,.T.);
#728=EDGE_CURVE('',#899,#900,#19,.T.);
#729=EDGE_CURVE('',#900,#901,#20,.T.);
#730=EDGE_CURVE('',#902,#901,#962,.T.);
#731=EDGE_CURVE('',#902,#899,#21,.T.);
#732=EDGE_CURVE('',#903,#903,#963,.T.);
#733=EDGE_CURVE('',#904,#905,#22,.T.);
#734=EDGE_CURVE('',#905,#906,#23,.T.);
#735=EDGE_CURVE('',#907,#906,#964,.T.);
#736=EDGE_CURVE('',#907,#904,#24,.T.);
#737=EDGE_CURVE('',#908,#908,#965,.T.);
#738=EDGE_CURVE('',#909,#910,#966,.T.);
#739=EDGE_CURVE('',#909,#911,#25,.T.);
#740=EDGE_CURVE('',#911,#912,#26,.T.);
#741=EDGE_CURVE('',#912,#910,#27,.T.);
#742=EDGE_CURVE('',#913,#913,#967,.T.);
#743=EDGE_CURVE('',#906,#909,#123,.F.);
#744=EDGE_CURVE('',#910,#897,#124,.T.);
#745=EDGE_CURVE('',#896,#902,#125,.T.);
#746=EDGE_CURVE('',#901,#907,#126,.F.);
#747=EDGE_CURVE('',#914,#862,#127,.T.);
#748=EDGE_CURVE('',#915,#914,#128,.T.);
#749=EDGE_CURVE('',#863,#915,#129,.T.);
#750=EDGE_CURVE('',#916,#914,#130,.T.);
#751=EDGE_CURVE('',#917,#916,#131,.T.);
#752=EDGE_CURVE('',#915,#917,#132,.T.);
#753=EDGE_CURVE('',#916,#861,#133,.T.);
#754=EDGE_CURVE('',#860,#917,#134,.T.);
#755=EDGE_CURVE('',#888,#883,#968,.T.);
#756=EDGE_CURVE('',#882,#877,#969,.T.);
#757=EDGE_CURVE('',#876,#830,#970,.T.);
#758=EDGE_CURVE('',#829,#889,#971,.T.);
#759=EDGE_CURVE('',#887,#868,#972,.T.);
#760=EDGE_CURVE('',#871,#878,#973,.T.);
#761=EDGE_CURVE('',#881,#890,#974,.T.);
#762=EDGE_CURVE('',#893,#884,#975,.T.);
#763=EDGE_CURVE('',#918,#919,#135,.T.);
#764=EDGE_CURVE('',#918,#873,#976,.F.);
#765=EDGE_CURVE('',#872,#850,#977,.F.);
#766=EDGE_CURVE('',#849,#874,#978,.F.);
#767=EDGE_CURVE('',#875,#919,#979,.F.);
#768=EDGE_CURVE('',#844,#918,#136,.F.);
#769=EDGE_CURVE('',#919,#845,#137,.F.);
#770=EDGE_CURVE('',#886,#869,#980,.T.);
#771=EDGE_CURVE('',#892,#885,#981,.F.);
#772=EDGE_CURVE('',#880,#891,#982,.T.);
#773=EDGE_CURVE('',#870,#879,#983,.F.);
#774=EDGE_CURVE('',#920,#864,#138,.T.);
#775=EDGE_CURVE('',#920,#921,#984,.F.);
#776=EDGE_CURVE('',#921,#865,#139,.T.);
#777=EDGE_CURVE('',#922,#867,#140,.T.);
#778=EDGE_CURVE('',#922,#920,#141,.T.);
#779=EDGE_CURVE('',#923,#866,#142,.T.);
#780=EDGE_CURVE('',#923,#922,#985,.F.);
#781=EDGE_CURVE('',#924,#925,#143,.T.);
#782=EDGE_CURVE('',#924,#923,#144,.T.);
#783=EDGE_CURVE('',#856,#925,#145,.T.);
#784=EDGE_CURVE('',#857,#854,#146,.T.);
#785=EDGE_CURVE('',#926,#927,#147,.T.);
#786=EDGE_CURVE('',#926,#852,#148,.T.);
#787=EDGE_CURVE('',#921,#927,#149,.T.);
#788=EDGE_CURVE('',#928,#822,#150,.T.);
#789=EDGE_CURVE('',#928,#929,#986,.T.);
#790=EDGE_CURVE('',#929,#823,#151,.T.);
#791=EDGE_CURVE('',#930,#824,#152,.T.);
#792=EDGE_CURVE('',#930,#931,#987,.T.);
#793=EDGE_CURVE('',#931,#825,#153,.T.);
#794=EDGE_CURVE('',#929,#930,#154,.T.);
#795=EDGE_CURVE('',#924,#932,#988,.F.);
#796=EDGE_CURVE('',#932,#933,#155,.T.);
#797=EDGE_CURVE('',#933,#927,#989,.F.);
#798=EDGE_CURVE('',#934,#928,#156,.T.);
#799=EDGE_CURVE('',#934,#935,#990,.T.);
#800=EDGE_CURVE('',#935,#936,#157,.T.);
#801=EDGE_CURVE('',#936,#937,#991,.T.);
#802=EDGE_CURVE('',#931,#937,#158,.T.);
#803=EDGE_CURVE('',#870,#895,#992,.T.);
#804=EDGE_CURVE('',#899,#869,#993,.T.);
#805=EDGE_CURVE('',#879,#894,#994,.T.);
#806=EDGE_CURVE('',#900,#886,#995,.T.);
#807=EDGE_CURVE('',#880,#912,#996,.T.);
#808=EDGE_CURVE('',#904,#885,#997,.T.);
#809=EDGE_CURVE('',#891,#911,#998,.T.);
#810=EDGE_CURVE('',#905,#892,#999,.T.);
#811=EDGE_CURVE('',#934,#820,#159,.T.);
#812=EDGE_CURVE('',#935,#848,#160,.T.);
#813=EDGE_CURVE('',#937,#826,#161,.T.);
#814=EDGE_CURVE('',#936,#851,#162,.T.);
#815=EDGE_CURVE('',#925,#938,#1000,.F.);
#816=EDGE_CURVE('',#932,#938,#163,.T.);
#817=EDGE_CURVE('',#938,#939,#164,.T.);
#818=EDGE_CURVE('',#933,#939,#165,.T.);
#819=EDGE_CURVE('',#939,#926,#1001,.F.);
#820=VERTEX_POINT('',#1766);
#821=VERTEX_POINT('',#1767);
#822=VERTEX_POINT('',#1769);
#823=VERTEX_POINT('',#1771);
#824=VERTEX_POINT('',#1773);
#825=VERTEX_POINT('',#1775);
#826=VERTEX_POINT('',#1777);
#827=VERTEX_POINT('',#1779);
#828=VERTEX_POINT('',#1781);
#829=VERTEX_POINT('',#1783);
#830=VERTEX_POINT('',#1785);
#831=VERTEX_POINT('',#1787);
#832=VERTEX_POINT('',#1791);
#833=VERTEX_POINT('',#1792);
#834=VERTEX_POINT('',#1795);
#835=VERTEX_POINT('',#1797);
#836=VERTEX_POINT('',#1799);
#837=VERTEX_POINT('',#1801);
#838=VERTEX_POINT('',#1803);
#839=VERTEX_POINT('',#1805);
#840=VERTEX_POINT('',#1808);
#841=VERTEX_POINT('',#1810);
#842=VERTEX_POINT('',#1812);
#843=VERTEX_POINT('',#1814);
#844=VERTEX_POINT('',#1816);
#845=VERTEX_POINT('',#1818);
#846=VERTEX_POINT('',#1820);
#847=VERTEX_POINT('',#1822);
#848=VERTEX_POINT('',#1826);
#849=VERTEX_POINT('',#1828);
#850=VERTEX_POINT('',#1830);
#851=VERTEX_POINT('',#1833);
#852=VERTEX_POINT('',#1837);
#853=VERTEX_POINT('',#1838);
#854=VERTEX_POINT('',#1840);
#855=VERTEX_POINT('',#1842);
#856=VERTEX_POINT('',#1846);
#857=VERTEX_POINT('',#1847);
#858=VERTEX_POINT('',#1849);
#859=VERTEX_POINT('',#1851);
#860=VERTEX_POINT('',#1855);
#861=VERTEX_POINT('',#1856);
#862=VERTEX_POINT('',#1858);
#863=VERTEX_POINT('',#1860);
#864=VERTEX_POINT('',#1863);
#865=VERTEX_POINT('',#1864);
#866=VERTEX_POINT('',#1868);
#867=VERTEX_POINT('',#1870);
#868=VERTEX_POINT('',#1874);
#869=VERTEX_POINT('',#1875);
#870=VERTEX_POINT('',#1877);
#871=VERTEX_POINT('',#1879);
#872=VERTEX_POINT('',#1883);
#873=VERTEX_POINT('',#1884);
#874=VERTEX_POINT('',#1889);
#875=VERTEX_POINT('',#1890);
#876=VERTEX_POINT('',#1895);
#877=VERTEX_POINT('',#1897);
#878=VERTEX_POINT('',#1901);
#879=VERTEX_POINT('',#1902);
#880=VERTEX_POINT('',#1904);
#881=VERTEX_POINT('',#1906);
#882=VERTEX_POINT('',#1910);
#883=VERTEX_POINT('',#1911);
#884=VERTEX_POINT('',#1916);
#885=VERTEX_POINT('',#1917);
#886=VERTEX_POINT('',#1919);
#887=VERTEX_POINT('',#1921);
#888=VERTEX_POINT('',#1925);
#889=VERTEX_POINT('',#1927);
#890=VERTEX_POINT('',#1931);
#891=VERTEX_POINT('',#1932);
#892=VERTEX_POINT('',#1934);
#893=VERTEX_POINT('',#1936);
#894=VERTEX_POINT('',#1944);
#895=VERTEX_POINT('',#1945);
#896=VERTEX_POINT('',#1951);
#897=VERTEX_POINT('',#1953);
#898=VERTEX_POINT('',#1960);
#899=VERTEX_POINT('',#1967);
#900=VERTEX_POINT('',#1968);
#901=VERTEX_POINT('',#1974);
#902=VERTEX_POINT('',#1976);
#903=VERTEX_POINT('',#1983);
#904=VERTEX_POINT('',#1990);
#905=VERTEX_POINT('',#1991);
#906=VERTEX_POINT('',#1997);
#907=VERTEX_POINT('',#1999);
#908=VERTEX_POINT('',#2006);
#909=VERTEX_POINT('',#2009);
#910=VERTEX_POINT('',#2010);
#911=VERTEX_POINT('',#2016);
#912=VERTEX_POINT('',#2022);
#913=VERTEX_POINT('',#2029);
#914=VERTEX_POINT('',#2037);
#915=VERTEX_POINT('',#2039);
#916=VERTEX_POINT('',#2043);
#917=VERTEX_POINT('',#2045);
#918=VERTEX_POINT('',#2062);
#919=VERTEX_POINT('',#2063);
#920=VERTEX_POINT('',#2089);
#921=VERTEX_POINT('',#2091);
#922=VERTEX_POINT('',#2095);
#923=VERTEX_POINT('',#2099);
#924=VERTEX_POINT('',#2103);
#925=VERTEX_POINT('',#2104);
#926=VERTEX_POINT('',#2111);
#927=VERTEX_POINT('',#2112);
#928=VERTEX_POINT('',#2117);
#929=VERTEX_POINT('',#2119);
#930=VERTEX_POINT('',#2123);
#931=VERTEX_POINT('',#2125);
#932=VERTEX_POINT('',#2131);
#933=VERTEX_POINT('',#2133);
#934=VERTEX_POINT('',#2136);
#935=VERTEX_POINT('',#2138);
#936=VERTEX_POINT('',#2140);
#937=VERTEX_POINT('',#2142);
#938=VERTEX_POINT('',#2169);
#939=VERTEX_POINT('',#2173);
#940=CIRCLE('',#1270,0.00145);
#941=CIRCLE('',#1271,0.00145);
#942=CIRCLE('',#1272,0.00145);
#943=CIRCLE('',#1273,0.00145);
#944=CIRCLE('',#1275,0.003);
#945=CIRCLE('',#1276,0.003);
#946=CIRCLE('',#1277,0.003);
#947=CIRCLE('',#1278,0.003);
#948=CIRCLE('',#1279,0.003);
#949=CIRCLE('',#1280,0.003);
#950=CIRCLE('',#1281,0.003);
#951=CIRCLE('',#1282,0.003);
#952=CIRCLE('',#1284,0.00145);
#953=CIRCLE('',#1285,0.00145);
#954=CIRCLE('',#1287,0.00125);
#955=CIRCLE('',#1288,0.00125);
#956=CIRCLE('',#1290,0.00125);
#957=CIRCLE('',#1291,0.00125);
#958=CIRCLE('',#1293,0.00125);
#959=CIRCLE('',#1294,0.00125);
#960=CIRCLE('',#1305,0.00145);
#961=CIRCLE('',#1306,0.00145);
#962=CIRCLE('',#1308,0.00145);
#963=CIRCLE('',#1309,0.00145);
#964=CIRCLE('',#1311,0.00145);
#965=CIRCLE('',#1312,0.00145);
#966=CIRCLE('',#1314,0.00145);
#967=CIRCLE('',#1315,0.00145);
#968=CIRCLE('',#1321,0.003);
#969=CIRCLE('',#1322,0.003);
#970=CIRCLE('',#1323,0.003);
#971=CIRCLE('',#1324,0.003);
#972=CIRCLE('',#1327,0.003);
#973=CIRCLE('',#1328,0.003);
#974=CIRCLE('',#1329,0.003);
#975=CIRCLE('',#1330,0.003);
#976=CIRCLE('',#1331,0.003);
#977=CIRCLE('',#1332,0.003);
#978=CIRCLE('',#1333,0.003);
#979=CIRCLE('',#1334,0.003);
#980=CIRCLE('',#1338,0.003);
#981=CIRCLE('',#1341,0.003);
#982=CIRCLE('',#1344,0.003);
#983=CIRCLE('',#1347,0.003);
#984=CIRCLE('',#1353,0.00125);
#985=CIRCLE('',#1356,0.00125);
#986=CIRCLE('',#1361,0.00145);
#987=CIRCLE('',#1363,0.00145);
#988=CIRCLE('',#1366,0.00125);
#989=CIRCLE('',#1367,0.00125);
#990=CIRCLE('',#1368,0.00145);
#991=CIRCLE('',#1369,0.00145);
#992=CIRCLE('',#1371,0.003);
#993=CIRCLE('',#1372,0.003);
#994=CIRCLE('',#1374,0.003);
#995=CIRCLE('',#1376,0.003);
#996=CIRCLE('',#1378,0.003);
#997=CIRCLE('',#1380,0.003);
#998=CIRCLE('',#1382,0.003);
#999=CIRCLE('',#1384,0.003);
#1000=CIRCLE('',#1390,0.00125);
#1001=CIRCLE('',#1393,0.00125);
#1002=EDGE_LOOP('',(#274,#275,#276,#277,#278,#279,#280,#281,#282,#283,#284,
#285));
#1003=EDGE_LOOP('',(#286,#287,#288,#289,#290,#291,#292,#293,#294,#295,#296,
#297,#298,#299,#300,#301,#302,#303,#304,#305));
#1004=EDGE_LOOP('',(#306,#307,#308,#309,#310,#311,#312,#313));
#1005=EDGE_LOOP('',(#314,#315,#316,#317));
#1006=EDGE_LOOP('',(#318,#319,#320,#321));
#1007=EDGE_LOOP('',(#322,#323,#324,#325));
#1008=EDGE_LOOP('',(#326,#327,#328,#329,#330,#331,#332,#333));
#1009=EDGE_LOOP('',(#334,#335,#336,#337));
#1010=EDGE_LOOP('',(#338,#339,#340,#341));
#1011=EDGE_LOOP('',(#342,#343,#344,#345));
#1012=EDGE_LOOP('',(#346,#347,#348,#349));
#1013=EDGE_LOOP('',(#350,#351,#352,#353));
#1014=EDGE_LOOP('',(#354,#355,#356,#357));
#1015=EDGE_LOOP('',(#358,#359,#360,#361));
#1016=EDGE_LOOP('',(#362,#363,#364,#365));
#1017=EDGE_LOOP('',(#366,#367,#368,#369));
#1018=EDGE_LOOP('',(#370,#371,#372,#373));
#1019=EDGE_LOOP('',(#374));
#1020=EDGE_LOOP('',(#375,#376,#377,#378));
#1021=EDGE_LOOP('',(#379));
#1022=EDGE_LOOP('',(#380,#381,#382,#383));
#1023=EDGE_LOOP('',(#384));
#1024=EDGE_LOOP('',(#385,#386,#387,#388));
#1025=EDGE_LOOP('',(#389));
#1026=EDGE_LOOP('',(#390,#391,#392,#393,#394,#395,#396,#397));
#1027=EDGE_LOOP('',(#398,#399,#400,#401));
#1028=EDGE_LOOP('',(#402,#403,#404,#405));
#1029=EDGE_LOOP('',(#406,#407,#408,#409));
#1030=EDGE_LOOP('',(#410,#411,#412,#413,#414,#415,#416,#417));
#1031=EDGE_LOOP('',(#418));
#1032=EDGE_LOOP('',(#419));
#1033=EDGE_LOOP('',(#420));
#1034=EDGE_LOOP('',(#421));
#1035=EDGE_LOOP('',(#422,#423,#424,#425));
#1036=EDGE_LOOP('',(#426,#427,#428,#429));
#1037=EDGE_LOOP('',(#430,#431,#432,#433,#434,#435,#436,#437));
#1038=EDGE_LOOP('',(#438,#439,#440,#441,#442,#443,#444,#445));
#1039=EDGE_LOOP('',(#446,#447,#448,#449));
#1040=EDGE_LOOP('',(#450,#451,#452,#453));
#1041=EDGE_LOOP('',(#454,#455,#456,#457));
#1042=EDGE_LOOP('',(#458,#459,#460,#461));
#1043=EDGE_LOOP('',(#462,#463,#464,#465));
#1044=EDGE_LOOP('',(#466,#467,#468,#469));
#1045=EDGE_LOOP('',(#470,#471,#472,#473));
#1046=EDGE_LOOP('',(#474,#475,#476,#477));
#1047=EDGE_LOOP('',(#478,#479,#480,#481));
#1048=EDGE_LOOP('',(#482,#483,#484,#485));
#1049=EDGE_LOOP('',(#486,#487,#488,#489));
#1050=EDGE_LOOP('',(#490,#491,#492,#493));
#1051=EDGE_LOOP('',(#494,#495,#496,#497));
#1052=EDGE_LOOP('',(#498,#499,#500,#501));
#1053=EDGE_LOOP('',(#502,#503,#504,#505));
#1054=EDGE_LOOP('',(#506,#507,#508,#509));
#1055=EDGE_LOOP('',(#510,#511,#512,#513,#514,#515));
#1056=EDGE_LOOP('',(#516,#517,#518,#519));
#1057=EDGE_LOOP('',(#520,#521,#522,#523,#524,#525));
#1058=EDGE_LOOP('',(#526,#527,#528,#529));
#1059=EDGE_LOOP('',(#530,#531,#532,#533));
#1060=EDGE_LOOP('',(#534,#535,#536,#537));
#1061=EDGE_LOOP('',(#538,#539,#540,#541,#542,#543,#544,#545));
#1062=EDGE_LOOP('',(#546,#547,#548,#549,#550,#551,#552,#553));
#1063=EDGE_LOOP('',(#554,#555,#556,#557,#558,#559));
#1064=EDGE_LOOP('',(#560,#561,#562,#563));
#1065=EDGE_LOOP('',(#564,#565,#566,#567));
#1066=EDGE_LOOP('',(#568,#569,#570,#571,#572,#573));
#1067=EDGE_LOOP('',(#574,#575,#576,#577,#578,#579));
#1068=EDGE_LOOP('',(#580,#581,#582,#583));
#1069=EDGE_LOOP('',(#584,#585,#586,#587));
#1070=EDGE_LOOP('',(#588,#589,#590,#591,#592,#593));
#1071=EDGE_LOOP('',(#594,#595,#596,#597,#598,#599));
#1072=EDGE_LOOP('',(#600,#601,#602,#603,#604,#605));
#1073=EDGE_LOOP('',(#606,#607,#608,#609));
#1074=EDGE_LOOP('',(#610,#611,#612,#613));
#1075=EDGE_LOOP('',(#614,#615,#616,#617));
#1076=EDGE_LOOP('',(#618,#619,#620,#621));
#1077=EDGE_LOOP('',(#622,#623,#624,#625,#626,#627,#628,#629));
#1078=EDGE_LOOP('',(#630,#631,#632,#633));
#1079=EDGE_LOOP('',(#634,#635,#636,#637));
#1080=FACE_BOUND('',#1002,.T.);
#1081=FACE_BOUND('',#1003,.T.);
#1082=FACE_BOUND('',#1004,.T.);
#1083=FACE_BOUND('',#1005,.T.);
#1084=FACE_BOUND('',#1006,.T.);
#1085=FACE_BOUND('',#1007,.T.);
#1086=FACE_BOUND('',#1008,.T.);
#1087=FACE_BOUND('',#1009,.T.);
#1088=FACE_BOUND('',#1010,.T.);
#1089=FACE_BOUND('',#1011,.T.);
#1090=FACE_BOUND('',#1012,.T.);
#1091=FACE_BOUND('',#1013,.T.);
#1092=FACE_BOUND('',#1014,.T.);
#1093=FACE_BOUND('',#1015,.T.);
#1094=FACE_BOUND('',#1016,.T.);
#1095=FACE_BOUND('',#1017,.T.);
#1096=FACE_BOUND('',#1018,.T.);
#1097=FACE_BOUND('',#1019,.T.);
#1098=FACE_BOUND('',#1020,.T.);
#1099=FACE_BOUND('',#1021,.T.);
#1100=FACE_BOUND('',#1022,.T.);
#1101=FACE_BOUND('',#1023,.T.);
#1102=FACE_BOUND('',#1024,.T.);
#1103=FACE_BOUND('',#1025,.T.);
#1104=FACE_BOUND('',#1026,.T.);
#1105=FACE_BOUND('',#1027,.T.);
#1106=FACE_BOUND('',#1028,.T.);
#1107=FACE_BOUND('',#1029,.T.);
#1108=FACE_BOUND('',#1030,.T.);
#1109=FACE_BOUND('',#1031,.T.);
#1110=FACE_BOUND('',#1032,.T.);
#1111=FACE_BOUND('',#1033,.T.);
#1112=FACE_BOUND('',#1034,.T.);
#1113=FACE_BOUND('',#1035,.T.);
#1114=FACE_BOUND('',#1036,.T.);
#1115=FACE_BOUND('',#1037,.T.);
#1116=FACE_BOUND('',#1038,.T.);
#1117=FACE_BOUND('',#1039,.T.);
#1118=FACE_BOUND('',#1040,.T.);
#1119=FACE_BOUND('',#1041,.T.);
#1120=FACE_BOUND('',#1042,.T.);
#1121=FACE_BOUND('',#1043,.T.);
#1122=FACE_BOUND('',#1044,.T.);
#1123=FACE_BOUND('',#1045,.T.);
#1124=FACE_BOUND('',#1046,.T.);
#1125=FACE_BOUND('',#1047,.T.);
#1126=FACE_BOUND('',#1048,.T.);
#1127=FACE_BOUND('',#1049,.T.);
#1128=FACE_BOUND('',#1050,.T.);
#1129=FACE_BOUND('',#1051,.T.);
#1130=FACE_BOUND('',#1052,.T.);
#1131=FACE_BOUND('',#1053,.T.);
#1132=FACE_BOUND('',#1054,.T.);
#1133=FACE_BOUND('',#1055,.T.);
#1134=FACE_BOUND('',#1056,.T.);
#1135=FACE_BOUND('',#1057,.T.);
#1136=FACE_BOUND('',#1058,.T.);
#1137=FACE_BOUND('',#1059,.T.);
#1138=FACE_BOUND('',#1060,.T.);
#1139=FACE_BOUND('',#1061,.T.);
#1140=FACE_BOUND('',#1062,.T.);
#1141=FACE_BOUND('',#1063,.T.);
#1142=FACE_BOUND('',#1064,.T.);
#1143=FACE_BOUND('',#1065,.T.);
#1144=FACE_BOUND('',#1066,.T.);
#1145=FACE_BOUND('',#1067,.T.);
#1146=FACE_BOUND('',#1068,.T.);
#1147=FACE_BOUND('',#1069,.T.);
#1148=FACE_BOUND('',#1070,.T.);
#1149=FACE_BOUND('',#1071,.T.);
#1150=FACE_BOUND('',#1072,.T.);
#1151=FACE_BOUND('',#1073,.T.);
#1152=FACE_BOUND('',#1074,.T.);
#1153=FACE_BOUND('',#1075,.T.);
#1154=FACE_BOUND('',#1076,.T.);
#1155=FACE_BOUND('',#1077,.T.);
#1156=FACE_BOUND('',#1078,.T.);
#1157=FACE_BOUND('',#1079,.T.);
#1158=PLANE('',#1269);
#1159=PLANE('',#1274);
#1160=PLANE('',#1283);
#1161=PLANE('',#1292);
#1162=PLANE('',#1295);
#1163=PLANE('',#1296);
#1164=PLANE('',#1297);
#1165=PLANE('',#1298);
#1166=PLANE('',#1299);
#1167=PLANE('',#1300);
#1168=PLANE('',#1301);
#1169=PLANE('',#1302);
#1170=PLANE('',#1303);
#1171=PLANE('',#1316);
#1172=PLANE('',#1317);
#1173=PLANE('',#1318);
#1174=PLANE('',#1319);
#1175=PLANE('',#1320);
#1176=PLANE('',#1325);
#1177=PLANE('',#1326);
#1178=PLANE('',#1335);
#1179=PLANE('',#1354);
#1180=PLANE('',#1357);
#1181=PLANE('',#1358);
#1182=PLANE('',#1359);
#1183=PLANE('',#1364);
#1184=PLANE('',#1365);
#1185=PLANE('',#1388);
#1186=PLANE('',#1391);
#1187=PLANE('',#1394);
#1188=PLANE('',#1395);
#1189=PLANE('',#1396);
#1190=ADVANCED_FACE('',(#1080),#1158,.F.);
#1191=ADVANCED_FACE('',(#1081),#1159,.T.);
#1192=ADVANCED_FACE('',(#1082),#1160,.T.);
#1193=ADVANCED_FACE('',(#1083),#28,.F.);
#1194=ADVANCED_FACE('',(#1084),#29,.F.);
#1195=ADVANCED_FACE('',(#1085,#1086),#1161,.T.);
#1196=ADVANCED_FACE('',(#1087),#1162,.T.);
#1197=ADVANCED_FACE('',(#1088),#1163,.T.);
#1198=ADVANCED_FACE('',(#1089),#1164,.T.);
#1199=ADVANCED_FACE('',(#1090),#1165,.T.);
#1200=ADVANCED_FACE('',(#1091),#1166,.T.);
#1201=ADVANCED_FACE('',(#1092),#1167,.T.);
#1202=ADVANCED_FACE('',(#1093),#1168,.F.);
#1203=ADVANCED_FACE('',(#1094),#1169,.F.);
#1204=ADVANCED_FACE('',(#1095),#1170,.F.);
#1205=ADVANCED_FACE('',(#1096,#1097),#30,.F.);
#1206=ADVANCED_FACE('',(#1098,#1099),#31,.F.);
#1207=ADVANCED_FACE('',(#1100,#1101),#32,.F.);
#1208=ADVANCED_FACE('',(#1102,#1103),#33,.F.);
#1209=ADVANCED_FACE('',(#1104),#1171,.F.);
#1210=ADVANCED_FACE('',(#1105),#1172,.F.);
#1211=ADVANCED_FACE('',(#1106),#1173,.F.);
#1212=ADVANCED_FACE('',(#1107),#1174,.T.);
#1213=ADVANCED_FACE('',(#1108,#1109,#1110,#1111,#1112,#1113),#1175,.T.);
#1214=ADVANCED_FACE('',(#1114),#1176,.T.);
#1215=ADVANCED_FACE('',(#1115,#1116),#1177,.T.);
#1216=ADVANCED_FACE('',(#1117),#1178,.T.);
#1217=ADVANCED_FACE('',(#1118),#34,.T.);
#1218=ADVANCED_FACE('',(#1119),#35,.T.);
#1219=ADVANCED_FACE('',(#1120),#36,.T.);
#1220=ADVANCED_FACE('',(#1121),#37,.T.);
#1221=ADVANCED_FACE('',(#1122),#38,.T.);
#1222=ADVANCED_FACE('',(#1123),#39,.T.);
#1223=ADVANCED_FACE('',(#1124),#40,.T.);
#1224=ADVANCED_FACE('',(#1125),#41,.T.);
#1225=ADVANCED_FACE('',(#1126),#42,.T.);
#1226=ADVANCED_FACE('',(#1127),#43,.T.);
#1227=ADVANCED_FACE('',(#1128),#44,.T.);
#1228=ADVANCED_FACE('',(#1129),#45,.T.);
#1229=ADVANCED_FACE('',(#1130),#46,.F.);
#1230=ADVANCED_FACE('',(#1131),#1179,.T.);
#1231=ADVANCED_FACE('',(#1132),#47,.F.);
#1232=ADVANCED_FACE('',(#1133),#1180,.T.);
#1233=ADVANCED_FACE('',(#1134),#1181,.T.);
#1234=ADVANCED_FACE('',(#1135),#1182,.T.);
#1235=ADVANCED_FACE('',(#1136),#48,.T.);
#1236=ADVANCED_FACE('',(#1137),#49,.T.);
#1237=ADVANCED_FACE('',(#1138),#1183,.T.);
#1238=ADVANCED_FACE('',(#1139,#1140),#1184,.T.);
#1239=ADVANCED_FACE('',(#1141),#50,.T.);
#1240=ADVANCED_FACE('',(#1142),#12,.T.);
#1241=ADVANCED_FACE('',(#1143),#13,.T.);
#1242=ADVANCED_FACE('',(#1144),#51,.T.);
#1243=ADVANCED_FACE('',(#1145),#52,.T.);
#1244=ADVANCED_FACE('',(#1146),#14,.T.);
#1245=ADVANCED_FACE('',(#1147),#15,.T.);
#1246=ADVANCED_FACE('',(#1148),#53,.T.);
#1247=ADVANCED_FACE('',(#1149),#54,.T.);
#1248=ADVANCED_FACE('',(#1150),#55,.T.);
#1249=ADVANCED_FACE('',(#1151),#1185,.F.);
#1250=ADVANCED_FACE('',(#1152),#56,.F.);
#1251=ADVANCED_FACE('',(#1153),#1186,.F.);
#1252=ADVANCED_FACE('',(#1154),#57,.F.);
#1253=ADVANCED_FACE('',(#1155),#1187,.F.);
#1254=ADVANCED_FACE('',(#1156),#1188,.T.);
#1255=ADVANCED_FACE('',(#1157),#1189,.T.);
#1256=CLOSED_SHELL('',(#1190,#1191,#1192,#1193,#1194,#1195,#1196,#1197,
#1198,#1199,#1200,#1201,#1202,#1203,#1204,#1205,#1206,#1207,#1208,#1209,
#1210,#1211,#1212,#1213,#1214,#1215,#1216,#1217,#1218,#1219,#1220,#1221,
#1222,#1223,#1224,#1225,#1226,#1227,#1228,#1229,#1230,#1231,#1232,#1233,
#1234,#1235,#1236,#1237,#1238,#1239,#1240,#1241,#1242,#1243,#1244,#1245,
#1246,#1247,#1248,#1249,#1250,#1251,#1252,#1253,#1254,#1255));
#1257=STYLED_ITEM('',(#1258),#1265);
#1258=PRESENTATION_STYLE_ASSIGNMENT((#1259));
#1259=SURFACE_STYLE_USAGE(.BOTH.,#1260);
#1260=SURFACE_SIDE_STYLE('',(#1261));
#1261=SURFACE_STYLE_FILL_AREA(#1262);
#1262=FILL_AREA_STYLE('',(#1263));
#1263=FILL_AREA_STYLE_COLOUR('',#1264);
#1264=COLOUR_RGB('',0.262745098039216,0.282352941176471,0.301960784313725);
#1265=MANIFOLD_SOLID_BREP('Part 101',#1256);
#1266=SHAPE_DEFINITION_REPRESENTATION(#2186,#1267);
#1267=SHAPE_REPRESENTATION('Part 101',(#1268),#2181);
#1268=AXIS2_PLACEMENT_3D('',#1763,#1397,#1398);
#1269=AXIS2_PLACEMENT_3D('',#1764,#1399,#1400);
#1270=AXIS2_PLACEMENT_3D('',#1765,#1401,#1402);
#1271=AXIS2_PLACEMENT_3D('',#1770,#1404,#1405);
#1272=AXIS2_PLACEMENT_3D('',#1774,#1407,#1408);
#1273=AXIS2_PLACEMENT_3D('',#1778,#1410,#1411);
#1274=AXIS2_PLACEMENT_3D('',#1789,#1417,#1418);
#1275=AXIS2_PLACEMENT_3D('',#1794,#1421,#1422);
#1276=AXIS2_PLACEMENT_3D('',#1798,#1424,#1425);
#1277=AXIS2_PLACEMENT_3D('',#1802,#1427,#1428);
#1278=AXIS2_PLACEMENT_3D('',#1806,#1430,#1431);
#1279=AXIS2_PLACEMENT_3D('',#1811,#1434,#1435);
#1280=AXIS2_PLACEMENT_3D('',#1815,#1437,#1438);
#1281=AXIS2_PLACEMENT_3D('',#1819,#1440,#1441);
#1282=AXIS2_PLACEMENT_3D('',#1823,#1443,#1444);
#1283=AXIS2_PLACEMENT_3D('',#1824,#1445,#1446);
#1284=AXIS2_PLACEMENT_3D('',#1825,#1447,#1448);
#1285=AXIS2_PLACEMENT_3D('',#1832,#1452,#1453);
#1286=AXIS2_PLACEMENT_3D('',#1835,#1455,#1456);
#1287=AXIS2_PLACEMENT_3D('',#1839,#1458,#1459);
#1288=AXIS2_PLACEMENT_3D('',#1843,#1461,#1462);
#1289=AXIS2_PLACEMENT_3D('',#1844,#1463,#1464);
#1290=AXIS2_PLACEMENT_3D('',#1845,#1465,#1466);
#1291=AXIS2_PLACEMENT_3D('',#1850,#1468,#1469);
#1292=AXIS2_PLACEMENT_3D('',#1853,#1471,#1472);
#1293=AXIS2_PLACEMENT_3D('',#1862,#1477,#1478);
#1294=AXIS2_PLACEMENT_3D('',#1869,#1482,#1483);
#1295=AXIS2_PLACEMENT_3D('',#1872,#1485,#1486);
#1296=AXIS2_PLACEMENT_3D('',#1881,#1491,#1492);
#1297=AXIS2_PLACEMENT_3D('',#1887,#1496,#1497);
#1298=AXIS2_PLACEMENT_3D('',#1893,#1501,#1502);
#1299=AXIS2_PLACEMENT_3D('',#1899,#1506,#1507);
#1300=AXIS2_PLACEMENT_3D('',#1908,#1512,#1513);
#1301=AXIS2_PLACEMENT_3D('',#1914,#1517,#1518);
#1302=AXIS2_PLACEMENT_3D('',#1923,#1523,#1524);
#1303=AXIS2_PLACEMENT_3D('',#1929,#1528,#1529);
#1304=AXIS2_PLACEMENT_3D('',#1938,#1534,#1535);
#1305=AXIS2_PLACEMENT_3D('',#1952,#1536,#1537);
#1306=AXIS2_PLACEMENT_3D('',#1959,#1538,#1539);
#1307=AXIS2_PLACEMENT_3D('',#1961,#1540,#1541);
#1308=AXIS2_PLACEMENT_3D('',#1975,#1542,#1543);
#1309=AXIS2_PLACEMENT_3D('',#1982,#1544,#1545);
#1310=AXIS2_PLACEMENT_3D('',#1984,#1546,#1547);
#1311=AXIS2_PLACEMENT_3D('',#1998,#1548,#1549);
#1312=AXIS2_PLACEMENT_3D('',#2005,#1550,#1551);
#1313=AXIS2_PLACEMENT_3D('',#2007,#1552,#1553);
#1314=AXIS2_PLACEMENT_3D('',#2008,#1554,#1555);
#1315=AXIS2_PLACEMENT_3D('',#2028,#1556,#1557);
#1316=AXIS2_PLACEMENT_3D('',#2030,#1558,#1559);
#1317=AXIS2_PLACEMENT_3D('',#2035,#1564,#1565);
#1318=AXIS2_PLACEMENT_3D('',#2041,#1569,#1570);
#1319=AXIS2_PLACEMENT_3D('',#2047,#1574,#1575);
#1320=AXIS2_PLACEMENT_3D('',#2050,#1578,#1579);
#1321=AXIS2_PLACEMENT_3D('',#2051,#1580,#1581);
#1322=AXIS2_PLACEMENT_3D('',#2052,#1582,#1583);
#1323=AXIS2_PLACEMENT_3D('',#2053,#1584,#1585);
#1324=AXIS2_PLACEMENT_3D('',#2054,#1586,#1587);
#1325=AXIS2_PLACEMENT_3D('',#2055,#1588,#1589);
#1326=AXIS2_PLACEMENT_3D('',#2056,#1590,#1591);
#1327=AXIS2_PLACEMENT_3D('',#2057,#1592,#1593);
#1328=AXIS2_PLACEMENT_3D('',#2058,#1594,#1595);
#1329=AXIS2_PLACEMENT_3D('',#2059,#1596,#1597);
#1330=AXIS2_PLACEMENT_3D('',#2060,#1598,#1599);
#1331=AXIS2_PLACEMENT_3D('',#2064,#1601,#1602);
#1332=AXIS2_PLACEMENT_3D('',#2065,#1603,#1604);
#1333=AXIS2_PLACEMENT_3D('',#2066,#1605,#1606);
#1334=AXIS2_PLACEMENT_3D('',#2067,#1607,#1608);
#1335=AXIS2_PLACEMENT_3D('',#2068,#1609,#1610);
#1336=AXIS2_PLACEMENT_3D('',#2071,#1613,#1614);
#1337=AXIS2_PLACEMENT_3D('',#2072,#1615,#1616);
#1338=AXIS2_PLACEMENT_3D('',#2073,#1617,#1618);
#1339=AXIS2_PLACEMENT_3D('',#2074,#1619,#1620);
#1340=AXIS2_PLACEMENT_3D('',#2075,#1621,#1622);
#1341=AXIS2_PLACEMENT_3D('',#2076,#1623,#1624);
#1342=AXIS2_PLACEMENT_3D('',#2077,#1625,#1626);
#1343=AXIS2_PLACEMENT_3D('',#2078,#1627,#1628);
#1344=AXIS2_PLACEMENT_3D('',#2079,#1629,#1630);
#1345=AXIS2_PLACEMENT_3D('',#2080,#1631,#1632);
#1346=AXIS2_PLACEMENT_3D('',#2081,#1633,#1634);
#1347=AXIS2_PLACEMENT_3D('',#2082,#1635,#1636);
#1348=AXIS2_PLACEMENT_3D('',#2083,#1637,#1638);
#1349=AXIS2_PLACEMENT_3D('',#2084,#1639,#1640);
#1350=AXIS2_PLACEMENT_3D('',#2085,#1641,#1642);
#1351=AXIS2_PLACEMENT_3D('',#2086,#1643,#1644);
#1352=AXIS2_PLACEMENT_3D('',#2087,#1645,#1646);
#1353=AXIS2_PLACEMENT_3D('',#2090,#1648,#1649);
#1354=AXIS2_PLACEMENT_3D('',#2093,#1651,#1652);
#1355=AXIS2_PLACEMENT_3D('',#2097,#1655,#1656);
#1356=AXIS2_PLACEMENT_3D('',#2100,#1658,#1659);
#1357=AXIS2_PLACEMENT_3D('',#2101,#1660,#1661);
#1358=AXIS2_PLACEMENT_3D('',#2107,#1665,#1666);
#1359=AXIS2_PLACEMENT_3D('',#2109,#1668,#1669);
#1360=AXIS2_PLACEMENT_3D('',#2115,#1673,#1674);
#1361=AXIS2_PLACEMENT_3D('',#2118,#1676,#1677);
#1362=AXIS2_PLACEMENT_3D('',#2121,#1679,#1680);
#1363=AXIS2_PLACEMENT_3D('',#2124,#1682,#1683);
#1364=AXIS2_PLACEMENT_3D('',#2127,#1685,#1686);
#1365=AXIS2_PLACEMENT_3D('',#2129,#1688,#1689);
#1366=AXIS2_PLACEMENT_3D('',#2130,#1690,#1691);
#1367=AXIS2_PLACEMENT_3D('',#2134,#1693,#1694);
#1368=AXIS2_PLACEMENT_3D('',#2137,#1696,#1697);
#1369=AXIS2_PLACEMENT_3D('',#2141,#1699,#1700);
#1370=AXIS2_PLACEMENT_3D('',#2144,#1702,#1703);
#1371=AXIS2_PLACEMENT_3D('',#2145,#1704,#1705);
#1372=AXIS2_PLACEMENT_3D('',#2146,#1706,#1707);
#1373=AXIS2_PLACEMENT_3D('',#2147,#1708,#1709);
#1374=AXIS2_PLACEMENT_3D('',#2148,#1710,#1711);
#1375=AXIS2_PLACEMENT_3D('',#2149,#1712,#1713);
#1376=AXIS2_PLACEMENT_3D('',#2150,#1714,#1715);
#1377=AXIS2_PLACEMENT_3D('',#2151,#1716,#1717);
#1378=AXIS2_PLACEMENT_3D('',#2152,#1718,#1719);
#1379=AXIS2_PLACEMENT_3D('',#2153,#1720,#1721);
#1380=AXIS2_PLACEMENT_3D('',#2154,#1722,#1723);
#1381=AXIS2_PLACEMENT_3D('',#2155,#1724,#1725);
#1382=AXIS2_PLACEMENT_3D('',#2156,#1726,#1727);
#1383=AXIS2_PLACEMENT_3D('',#2157,#1728,#1729);
#1384=AXIS2_PLACEMENT_3D('',#2158,#1730,#1731);
#1385=AXIS2_PLACEMENT_3D('',#2159,#1732,#1733);
#1386=AXIS2_PLACEMENT_3D('',#2160,#1734,#1735);
#1387=AXIS2_PLACEMENT_3D('',#2163,#1738,#1739);
#1388=AXIS2_PLACEMENT_3D('',#2166,#1742,#1743);
#1389=AXIS2_PLACEMENT_3D('',#2167,#1744,#1745);
#1390=AXIS2_PLACEMENT_3D('',#2168,#1746,#1747);
#1391=AXIS2_PLACEMENT_3D('',#2171,#1749,#1750);
#1392=AXIS2_PLACEMENT_3D('',#2175,#1753,#1754);
#1393=AXIS2_PLACEMENT_3D('',#2176,#1755,#1756);
#1394=AXIS2_PLACEMENT_3D('',#2177,#1757,#1758);
#1395=AXIS2_PLACEMENT_3D('',#2178,#1759,#1760);
#1396=AXIS2_PLACEMENT_3D('',#2179,#1761,#1762);
#1397=DIRECTION('',(0.,0.,1.));
#1398=DIRECTION('',(1.,0.,0.));
#1399=DIRECTION('',(0.,-1.,0.));
#1400=DIRECTION('',(0.,0.,-1.));
#1401=DIRECTION('',(0.,-1.,0.));
#1402=DIRECTION('',(0.,0.,-1.));
#1403=DIRECTION('',(0.,0.,1.));
#1404=DIRECTION('',(0.,-1.,0.));
#1405=DIRECTION('',(0.,0.,1.));
#1406=DIRECTION('',(-1.,0.,0.));
#1407=DIRECTION('',(0.,-1.,0.));
#1408=DIRECTION('',(0.,0.,1.));
#1409=DIRECTION('',(0.,0.,-1.));
#1410=DIRECTION('',(0.,-1.,0.));
#1411=DIRECTION('',(0.,0.,-1.));
#1412=DIRECTION('',(-1.,0.,0.));
#1413=DIRECTION('',(0.,0.,-1.));
#1414=DIRECTION('',(-1.,0.,0.));
#1415=DIRECTION('',(0.,0.,-1.));
#1416=DIRECTION('',(-1.,0.,0.));
#1417=DIRECTION('',(0.,0.,-1.));
#1418=DIRECTION('',(-1.,0.,0.));
#1419=DIRECTION('',(-1.,0.,0.));
#1420=DIRECTION('',(0.,-1.,0.));
#1421=DIRECTION('',(0.,0.,-1.));
#1422=DIRECTION('',(-1.,0.,0.));
#1423=DIRECTION('',(0.,1.,0.));
#1424=DIRECTION('',(0.,0.,-1.));
#1425=DIRECTION('',(-1.,0.,0.));
#1426=DIRECTION('',(-1.,0.,0.));
#1427=DIRECTION('',(0.,0.,-1.));
#1428=DIRECTION('',(-1.,0.,0.));
#1429=DIRECTION('',(0.,1.,0.));
#1430=DIRECTION('',(0.,0.,-1.));
#1431=DIRECTION('',(-1.,0.,0.));
#1432=DIRECTION('',(0.,-1.,0.));
#1433=DIRECTION('',(-1.,0.,0.));
#1434=DIRECTION('',(0.,0.,-1.));
#1435=DIRECTION('',(-1.,0.,0.));
#1436=DIRECTION('',(0.,1.,0.));
#1437=DIRECTION('',(0.,0.,-1.));
#1438=DIRECTION('',(-1.,0.,0.));
#1439=DIRECTION('',(-1.,0.,0.));
#1440=DIRECTION('',(0.,0.,-1.));
#1441=DIRECTION('',(-1.,0.,0.));
#1442=DIRECTION('',(0.,1.,0.));
#1443=DIRECTION('',(0.,0.,-1.));
#1444=DIRECTION('',(-1.,0.,0.));
#1445=DIRECTION('',(0.,1.,0.));
#1446=DIRECTION('',(-1.,0.,0.));
#1447=DIRECTION('',(0.,1.,0.));
#1448=DIRECTION('',(0.,0.,-1.));
#1449=DIRECTION('',(0.,0.,-1.));
#1450=DIRECTION('',(1.,0.,-6.50521303491303E-17));
#1451=DIRECTION('',(0.,0.,-1.));
#1452=DIRECTION('',(0.,1.,0.));
#1453=DIRECTION('',(0.,0.,-1.));
#1454=DIRECTION('',(-1.,0.,0.));
#1455=DIRECTION('',(1.346145417358E-15,-1.,3.006609133585E-15));
#1456=DIRECTION('',(0.,-3.006609133585E-15,-1.));
#1457=DIRECTION('',(1.346145417358E-15,-1.,3.006609133585E-15));
#1458=DIRECTION('',(0.,1.,0.));
#1459=DIRECTION('',(0.,0.,1.));
#1460=DIRECTION('',(1.346145417358E-15,-1.,3.006609133585E-15));
#1461=DIRECTION('',(0.,-1.,0.));
#1462=DIRECTION('',(0.,0.,-1.));
#1463=DIRECTION('',(1.346145417358E-15,-1.,3.006609133585E-15));
#1464=DIRECTION('',(0.,-3.006609133585E-15,-1.));
#1465=DIRECTION('',(0.,1.,0.));
#1466=DIRECTION('',(0.,0.,1.));
#1467=DIRECTION('',(1.346145417358E-15,-1.,3.006609133585E-15));
#1468=DIRECTION('',(0.,-1.,0.));
#1469=DIRECTION('',(0.,0.,-1.));
#1470=DIRECTION('',(1.346145417358E-15,-1.,3.006609133585E-15));
#1471=DIRECTION('',(0.,-1.,0.));
#1472=DIRECTION('',(0.,0.,-1.));
#1473=DIRECTION('',(0.,0.,-1.));
#1474=DIRECTION('',(1.,0.,0.));
#1475=DIRECTION('',(0.,0.,-1.));
#1476=DIRECTION('',(-1.,0.,0.));
#1477=DIRECTION('',(0.,-1.,0.));
#1478=DIRECTION('',(0.,0.,-1.));
#1479=DIRECTION('',(-1.40341647930716E-30,0.,-1.));
#1480=DIRECTION('',(-1.,0.,-2.643916627655E-30));
#1481=DIRECTION('',(1.40341647930716E-30,0.,1.));
#1482=DIRECTION('',(0.,-1.,0.));
#1483=DIRECTION('',(0.,0.,-1.));
#1484=DIRECTION('',(1.,0.,2.643916627655E-30));
#1485=DIRECTION('',(0.,-1.,0.));
#1486=DIRECTION('',(0.,0.,-1.));
#1487=DIRECTION('',(0.,0.,-1.));
#1488=DIRECTION('',(-1.,0.,0.));
#1489=DIRECTION('',(0.,0.,-1.));
#1490=DIRECTION('',(-1.,0.,0.));
#1491=DIRECTION('',(-1.,0.,0.));
#1492=DIRECTION('',(0.,-1.,0.));
#1493=DIRECTION('',(0.,-1.,1.9156455562934E-16));
#1494=DIRECTION('',(0.,0.,1.));
#1495=DIRECTION('',(0.,0.,-1.));
#1496=DIRECTION('',(1.,0.,0.));
#1497=DIRECTION('',(0.,-1.,0.));
#1498=DIRECTION('',(0.,-1.,1.9156455562934E-16));
#1499=DIRECTION('',(0.,0.,-1.));
#1500=DIRECTION('',(0.,0.,-1.));
#1501=DIRECTION('',(1.,0.,0.));
#1502=DIRECTION('',(0.,0.,-1.));
#1503=DIRECTION('',(0.,0.,-1.));
#1504=DIRECTION('',(0.,-1.,0.));
#1505=DIRECTION('',(0.,0.,-1.));
#1506=DIRECTION('',(1.,0.,0.));
#1507=DIRECTION('',(0.,0.,-1.));
#1508=DIRECTION('',(0.,0.,-1.));
#1509=DIRECTION('',(0.,-1.,0.));
#1510=DIRECTION('',(0.,0.,-1.));
#1511=DIRECTION('',(0.,1.,0.));
#1512=DIRECTION('',(0.,-1.,0.));
#1513=DIRECTION('',(0.,0.,-1.));
#1514=DIRECTION('',(-1.,0.,0.));
#1515=DIRECTION('',(0.,0.,-1.));
#1516=DIRECTION('',(0.,0.,-1.));
#1517=DIRECTION('',(1.,0.,0.));
#1518=DIRECTION('',(0.,0.,-1.));
#1519=DIRECTION('',(0.,0.,-1.));
#1520=DIRECTION('',(0.,-1.,0.));
#1521=DIRECTION('',(0.,0.,-1.));
#1522=DIRECTION('',(0.,1.,0.));
#1523=DIRECTION('',(1.,0.,0.));
#1524=DIRECTION('',(0.,0.,-1.));
#1525=DIRECTION('',(0.,0.,-1.));
#1526=DIRECTION('',(0.,-1.,0.));
#1527=DIRECTION('',(0.,0.,-1.));
#1528=DIRECTION('',(0.,-1.,0.));
#1529=DIRECTION('',(0.,0.,-1.));
#1530=DIRECTION('',(0.,0.,-1.));
#1531=DIRECTION('',(-1.,0.,0.));
#1532=DIRECTION('',(0.,0.,-1.));
#1533=DIRECTION('',(1.,0.,-6.50521303491303E-17));
#1534=DIRECTION('',(0.,0.,-1.));
#1535=DIRECTION('',(-1.,0.,0.));
#1536=DIRECTION('',(0.,0.,1.));
#1537=DIRECTION('',(1.,0.,0.));
#1538=DIRECTION('',(0.,0.,1.));
#1539=DIRECTION('',(1.,0.,0.));
#1540=DIRECTION('',(0.,0.,-1.));
#1541=DIRECTION('',(-1.,0.,0.));
#1542=DIRECTION('',(0.,0.,1.));
#1543=DIRECTION('',(1.,0.,0.));
#1544=DIRECTION('',(0.,0.,1.));
#1545=DIRECTION('',(1.,0.,0.));
#1546=DIRECTION('',(0.,0.,-1.));
#1547=DIRECTION('',(-1.,0.,0.));
#1548=DIRECTION('',(0.,0.,1.));
#1549=DIRECTION('',(1.,0.,0.));
#1550=DIRECTION('',(0.,0.,1.));
#1551=DIRECTION('',(1.,0.,0.));
#1552=DIRECTION('',(0.,0.,-1.));
#1553=DIRECTION('',(-1.,0.,0.));
#1554=DIRECTION('',(0.,0.,1.));
#1555=DIRECTION('',(1.,0.,0.));
#1556=DIRECTION('',(0.,0.,1.));
#1557=DIRECTION('',(1.,0.,0.));
#1558=DIRECTION('',(0.,0.,1.));
#1559=DIRECTION('',(1.,0.,0.));
#1560=DIRECTION('',(-1.,0.,0.));
#1561=DIRECTION('',(0.,-1.,0.));
#1562=DIRECTION('',(-1.,0.,0.));
#1563=DIRECTION('',(0.,-1.,0.));
#1564=DIRECTION('',(1.,0.,0.));
#1565=DIRECTION('',(0.,0.,-1.));
#1566=DIRECTION('',(0.,1.,0.));
#1567=DIRECTION('',(0.,0.,-1.));
#1568=DIRECTION('',(0.,-1.,0.));
#1569=DIRECTION('',(0.,-1.,0.));
#1570=DIRECTION('',(0.,0.,-1.));
#1571=DIRECTION('',(1.,0.,0.));
#1572=DIRECTION('',(0.,0.,-1.));
#1573=DIRECTION('',(-1.,0.,0.));
#1574=DIRECTION('',(1.,0.,0.));
#1575=DIRECTION('',(0.,0.,-1.));
#1576=DIRECTION('',(0.,1.,0.));
#1577=DIRECTION('',(0.,-1.,0.));
#1578=DIRECTION('',(0.,0.,1.));
#1579=DIRECTION('',(1.,0.,0.));
#1580=DIRECTION('',(0.,0.,1.));
#1581=DIRECTION('',(1.,0.,0.));
#1582=DIRECTION('',(0.,0.,1.));
#1583=DIRECTION('',(1.,0.,0.));
#1584=DIRECTION('',(0.,0.,1.));
#1585=DIRECTION('',(1.,0.,0.));
#1586=DIRECTION('',(0.,0.,1.));
#1587=DIRECTION('',(1.,0.,0.));
#1588=DIRECTION('',(0.,0.,1.));
#1589=DIRECTION('',(1.,0.,0.));
#1590=DIRECTION('',(6.50521303491303E-17,0.,1.));
#1591=DIRECTION('',(1.,0.,-6.50521303491303E-17));
#1592=DIRECTION('',(6.50521303491303E-17,0.,1.));
#1593=DIRECTION('',(1.,0.,-6.50521303491303E-17));
#1594=DIRECTION('',(6.50521303491303E-17,0.,1.));
#1595=DIRECTION('',(1.,0.,-6.50521303491303E-17));
#1596=DIRECTION('',(6.50521303491303E-17,0.,1.));
#1597=DIRECTION('',(1.,0.,-6.50521303491303E-17));
#1598=DIRECTION('',(6.50521303491303E-17,0.,1.));
#1599=DIRECTION('',(1.,0.,-6.50521303491303E-17));
#1600=DIRECTION('',(1.,0.,-6.50521303491303E-17));
#1601=DIRECTION('',(6.50521303491303E-17,0.,1.));
#1602=DIRECTION('',(1.,0.,-6.50521303491303E-17));
#1603=DIRECTION('',(6.50521303491303E-17,0.,1.));
#1604=DIRECTION('',(1.,0.,-6.50521303491303E-17));
#1605=DIRECTION('',(6.50521303491303E-17,0.,1.));
#1606=DIRECTION('',(1.,0.,-6.50521303491303E-17));
#1607=DIRECTION('',(6.50521303491303E-17,0.,1.));
#1608=DIRECTION('',(1.,0.,-6.50521303491303E-17));
#1609=DIRECTION('',(0.,-1.,0.));
#1610=DIRECTION('',(-1.,0.,0.));
#1611=DIRECTION('',(0.,0.,1.));
#1612=DIRECTION('',(0.,0.,-1.));
#1613=DIRECTION('',(0.,0.,1.));
#1614=DIRECTION('',(1.,0.,0.));
#1615=DIRECTION('',(0.,0.,1.));
#1616=DIRECTION('',(1.,0.,0.));
#1617=DIRECTION('',(0.,0.,1.));
#1618=DIRECTION('',(1.,0.,0.));
#1619=DIRECTION('',(0.,0.,-1.));
#1620=DIRECTION('',(-1.,0.,0.));
#1621=DIRECTION('',(0.,0.,-1.));
#1622=DIRECTION('',(-1.,0.,0.));
#1623=DIRECTION('',(0.,0.,-1.));
#1624=DIRECTION('',(-1.,0.,0.));
#1625=DIRECTION('',(0.,0.,1.));
#1626=DIRECTION('',(1.,0.,0.));
#1627=DIRECTION('',(0.,0.,1.));
#1628=DIRECTION('',(1.,0.,0.));
#1629=DIRECTION('',(0.,0.,1.));
#1630=DIRECTION('',(1.,0.,0.));
#1631=DIRECTION('',(0.,0.,-1.));
#1632=DIRECTION('',(-1.,0.,0.));
#1633=DIRECTION('',(0.,0.,-1.));
#1634=DIRECTION('',(-1.,0.,0.));
#1635=DIRECTION('',(0.,0.,-1.));
#1636=DIRECTION('',(-1.,0.,0.));
#1637=DIRECTION('',(0.,0.,1.));
#1638=DIRECTION('',(1.,0.,0.));
#1639=DIRECTION('',(0.,0.,-1.));
#1640=DIRECTION('',(-1.,0.,0.));
#1641=DIRECTION('',(0.,0.,-1.));
#1642=DIRECTION('',(-1.,0.,0.));
#1643=DIRECTION('',(0.,0.,-1.));
#1644=DIRECTION('',(-1.,0.,0.));
#1645=DIRECTION('',(1.346145417358E-15,-1.,3.006609133585E-15));
#1646=DIRECTION('',(0.,-3.006609133585E-15,-1.));
#1647=DIRECTION('',(1.346145417358E-15,-1.,3.006609133585E-15));
#1648=DIRECTION('',(0.,-1.,0.));
#1649=DIRECTION('',(0.,0.,-1.));
#1650=DIRECTION('',(1.346145417358E-15,-1.,3.006609133585E-15));
#1651=DIRECTION('',(2.643916627655E-30,-3.006609133585E-15,-1.));
#1652=DIRECTION('',(0.,1.,-3.006609133585E-15));
#1653=DIRECTION('',(1.346145417358E-15,-1.,3.006609133585E-15));
#1654=DIRECTION('',(1.,0.,2.643916627655E-30));
#1655=DIRECTION('',(1.346145417358E-15,-1.,3.006609133585E-15));
#1656=DIRECTION('',(0.,-3.006609133585E-15,-1.));
#1657=DIRECTION('',(1.346145417358E-15,-1.,3.006609133585E-15));
#1658=DIRECTION('',(0.,-1.,0.));
#1659=DIRECTION('',(0.,0.,-1.));
#1660=DIRECTION('',(1.,1.346145417358E-15,-1.40341647930716E-30));
#1661=DIRECTION('',(-1.346145417358E-15,1.,0.));
#1662=DIRECTION('',(0.,-1.,0.));
#1663=DIRECTION('',(1.40341647930716E-30,0.,1.));
#1664=DIRECTION('',(1.40341647930716E-30,0.,1.));
#1665=DIRECTION('',(-2.643916627655E-30,3.006609133585E-15,1.));
#1666=DIRECTION('',(0.,-1.,3.006609133585E-15));
#1667=DIRECTION('',(1.,0.,2.643916627655E-30));
#1668=DIRECTION('',(-1.,-1.346145417358E-15,1.40341647930716E-30));
#1669=DIRECTION('',(1.346145417358E-15,-1.,0.));
#1670=DIRECTION('',(-1.346145417358E-15,1.,0.));
#1671=DIRECTION('',(-1.40341647930716E-30,0.,-1.));
#1672=DIRECTION('',(-1.40341647930716E-30,0.,-1.));
#1673=DIRECTION('',(0.,-1.,0.));
#1674=DIRECTION('',(0.,0.,-1.));
#1675=DIRECTION('',(0.,-1.,0.));
#1676=DIRECTION('',(0.,-1.,0.));
#1677=DIRECTION('',(0.,0.,1.));
#1678=DIRECTION('',(0.,-1.,0.));
#1679=DIRECTION('',(0.,-1.,0.));
#1680=DIRECTION('',(0.,0.,-1.));
#1681=DIRECTION('',(0.,-1.,0.));
#1682=DIRECTION('',(0.,-1.,0.));
#1683=DIRECTION('',(0.,0.,1.));
#1684=DIRECTION('',(0.,-1.,0.));
#1685=DIRECTION('',(0.,0.,1.));
#1686=DIRECTION('',(1.,0.,0.));
#1687=DIRECTION('',(-1.,0.,0.));
#1688=DIRECTION('',(0.,1.,0.));
#1689=DIRECTION('',(-1.,0.,0.));
#1690=DIRECTION('',(0.,1.,0.));
#1691=DIRECTION('',(0.,0.,1.));
#1692=DIRECTION('',(1.,0.,-2.643916627655E-30));
#1693=DIRECTION('',(0.,1.,0.));
#1694=DIRECTION('',(0.,0.,1.));
#1695=DIRECTION('',(0.,0.,1.));
#1696=DIRECTION('',(0.,1.,0.));
#1697=DIRECTION('',(0.,0.,-1.));
#1698=DIRECTION('',(-1.,0.,0.));
#1699=DIRECTION('',(0.,1.,0.));
#1700=DIRECTION('',(0.,0.,-1.));
#1701=DIRECTION('',(0.,0.,-1.));
#1702=DIRECTION('',(1.,0.,0.));
#1703=DIRECTION('',(0.,0.,-1.));
#1704=DIRECTION('',(1.,0.,0.));
#1705=DIRECTION('',(0.,0.,-1.));
#1706=DIRECTION('',(-1.,0.,0.));
#1707=DIRECTION('',(0.,0.,1.));
#1708=DIRECTION('',(0.,0.,1.));
#1709=DIRECTION('',(1.,0.,0.));
#1710=DIRECTION('',(0.,1.,0.));
#1711=DIRECTION('',(0.,0.,1.));
#1712=DIRECTION('',(0.,0.,1.));
#1713=DIRECTION('',(1.,0.,0.));
#1714=DIRECTION('',(0.,1.,0.));
#1715=DIRECTION('',(0.,0.,1.));
#1716=DIRECTION('',(0.,1.,0.));
#1717=DIRECTION('',(0.,0.,1.));
#1718=DIRECTION('',(0.,1.,0.));
#1719=DIRECTION('',(0.,0.,1.));
#1720=DIRECTION('',(0.,-1.,0.));
#1721=DIRECTION('',(0.,0.,-1.));
#1722=DIRECTION('',(0.,1.,0.));
#1723=DIRECTION('',(0.,0.,1.));
#1724=DIRECTION('',(0.,0.,1.));
#1725=DIRECTION('',(1.,0.,0.));
#1726=DIRECTION('',(-1.,0.,0.));
#1727=DIRECTION('',(0.,0.,1.));
#1728=DIRECTION('',(0.,0.,1.));
#1729=DIRECTION('',(1.,0.,0.));
#1730=DIRECTION('',(1.,0.,0.));
#1731=DIRECTION('',(0.,0.,-1.));
#1732=DIRECTION('',(-1.,0.,0.));
#1733=DIRECTION('',(0.,0.,1.));
#1734=DIRECTION('',(0.,-1.,0.));
#1735=DIRECTION('',(0.,0.,-1.));
#1736=DIRECTION('',(0.,-1.,0.));
#1737=DIRECTION('',(0.,-1.,0.));
#1738=DIRECTION('',(0.,-1.,0.));
#1739=DIRECTION('',(0.,0.,-1.));
#1740=DIRECTION('',(0.,-1.,0.));
#1741=DIRECTION('',(0.,-1.,0.));
#1742=DIRECTION('',(0.,0.,1.));
#1743=DIRECTION('',(1.,0.,0.));
#1744=DIRECTION('',(0.,-1.,0.));
#1745=DIRECTION('',(0.,0.,-1.));
#1746=DIRECTION('',(0.,1.,0.));
#1747=DIRECTION('',(0.,0.,1.));
#1748=DIRECTION('',(0.,-1.,0.));
#1749=DIRECTION('',(-2.643916627655E-30,0.,-1.));
#1750=DIRECTION('',(-1.,0.,2.643916627655E-30));
#1751=DIRECTION('',(1.,0.,-2.643916627655E-30));
#1752=DIRECTION('',(0.,-1.,0.));
#1753=DIRECTION('',(0.,-1.,0.));
#1754=DIRECTION('',(0.,0.,-1.));
#1755=DIRECTION('',(0.,1.,0.));
#1756=DIRECTION('',(0.,0.,1.));
#1757=DIRECTION('',(0.,1.,0.));
#1758=DIRECTION('',(-1.,0.,0.));
#1759=DIRECTION('',(-1.,0.,0.));
#1760=DIRECTION('',(0.,0.,1.));
#1761=DIRECTION('',(1.,0.,0.));
#1762=DIRECTION('',(0.,0.,-1.));
#1763=CARTESIAN_POINT('',(0.,0.,0.));
#1764=CARTESIAN_POINT('',(0.,0.04125,0.003));
#1765=CARTESIAN_POINT('',(-0.018917,0.04125,0.00755));
#1766=CARTESIAN_POINT('',(-0.017467,0.04125,0.00755));
#1767=CARTESIAN_POINT('',(-0.0174671192079673,0.04125,0.00753140728920698));
#1768=CARTESIAN_POINT('',(-0.017467,0.04125,0.0079));
#1769=CARTESIAN_POINT('',(-0.017467,0.04125,0.00825));
#1770=CARTESIAN_POINT('',(-0.018917,0.04125,0.00825));
#1771=CARTESIAN_POINT('',(-0.018917,0.04125,0.0097));
#1772=CARTESIAN_POINT('',(-0.022137,0.04125,0.0097));
#1773=CARTESIAN_POINT('',(-0.025357,0.04125,0.0097));
#1774=CARTESIAN_POINT('',(-0.025357,0.04125,0.00825));
#1775=CARTESIAN_POINT('',(-0.026807,0.04125,0.00825));
#1776=CARTESIAN_POINT('',(-0.026807,0.04125,0.0079));
#1777=CARTESIAN_POINT('',(-0.026807,0.04125,0.00755));
#1778=CARTESIAN_POINT('',(-0.025357,0.04125,0.00755));
#1779=CARTESIAN_POINT('',(-0.0268068807920327,0.04125,0.00753140728920698));
#1780=CARTESIAN_POINT('',(0.,0.04125,0.00753140728920698));
#1781=CARTESIAN_POINT('',(-0.037,0.04125,0.00753140728920698));
#1782=CARTESIAN_POINT('',(-0.037,0.04125,0.003));
#1783=CARTESIAN_POINT('',(-0.037,0.04125,0.013));
#1784=CARTESIAN_POINT('',(0.,0.04125,0.013));
#1785=CARTESIAN_POINT('',(0.037,0.04125,0.013));
#1786=CARTESIAN_POINT('',(0.037,0.04125,0.00753140728920698));
#1787=CARTESIAN_POINT('',(0.037,0.04125,0.00753140728920698));
#1788=CARTESIAN_POINT('',(0.,0.04125,0.00753140728920698));
#1789=CARTESIAN_POINT('',(0.,0.04025,0.00753140728920698));
#1790=CARTESIAN_POINT('',(0.,0.04025,0.00753140728920698));
#1791=CARTESIAN_POINT('',(0.036,0.04025,0.00753140728920698));
#1792=CARTESIAN_POINT('',(-0.0174671192079673,0.04025,0.00753140728920698));
#1793=CARTESIAN_POINT('',(-0.0174671192079673,0.04225,0.00753140728920698));
#1794=CARTESIAN_POINT('',(0.037,0.03825,0.00753140728920698));
#1795=CARTESIAN_POINT('',(0.04,0.03825,0.00753140728920698));
#1796=CARTESIAN_POINT('',(0.04,0.04025,0.00753140728920698));
#1797=CARTESIAN_POINT('',(0.04,-0.03825,0.00753140728920698));
#1798=CARTESIAN_POINT('',(0.037,-0.03825,0.00753140728920698));
#1799=CARTESIAN_POINT('',(0.037,-0.04125,0.00753140728920698));
#1800=CARTESIAN_POINT('',(-0.039,-0.04125,0.00753140728920698));
#1801=CARTESIAN_POINT('',(-0.037,-0.04125,0.00753140728920698));
#1802=CARTESIAN_POINT('',(-0.037,-0.03825,0.00753140728920698));
#1803=CARTESIAN_POINT('',(-0.04,-0.03825,0.00753140728920698));
#1804=CARTESIAN_POINT('',(-0.04,0.04025,0.00753140728920698));
#1805=CARTESIAN_POINT('',(-0.04,0.03825,0.00753140728920698));
#1806=CARTESIAN_POINT('',(-0.037,0.03825,0.00753140728920698));
#1807=CARTESIAN_POINT('',(-0.0268068807920327,0.04225,0.00753140728920698));
#1808=CARTESIAN_POINT('',(-0.0268068807920327,0.04025,0.00753140728920698));
#1809=CARTESIAN_POINT('',(0.,0.04025,0.00753140728920698));
#1810=CARTESIAN_POINT('',(-0.036,0.04025,0.00753140728920698));
#1811=CARTESIAN_POINT('',(-0.036,0.03725,0.00753140728920698));
#1812=CARTESIAN_POINT('',(-0.039,0.03725,0.00753140728920698));
#1813=CARTESIAN_POINT('',(-0.039,-0.0005,0.00753140728920698));
#1814=CARTESIAN_POINT('',(-0.039,-0.03725,0.00753140728920698));
#1815=CARTESIAN_POINT('',(-0.036,-0.03725,0.00753140728920698));
#1816=CARTESIAN_POINT('',(-0.036,-0.04025,0.00753140728920698));
#1817=CARTESIAN_POINT('',(0.,-0.04025,0.00753140728920698));
#1818=CARTESIAN_POINT('',(0.036,-0.04025,0.00753140728920698));
#1819=CARTESIAN_POINT('',(0.036,-0.03725,0.00753140728920698));
#1820=CARTESIAN_POINT('',(0.039,-0.03725,0.00753140728920698));
#1821=CARTESIAN_POINT('',(0.039,-0.0005,0.00753140728920698));
#1822=CARTESIAN_POINT('',(0.039,0.03725,0.00753140728920698));
#1823=CARTESIAN_POINT('',(0.036,0.03725,0.00753140728920698));
#1824=CARTESIAN_POINT('',(0.,0.04025,0.0065));
#1825=CARTESIAN_POINT('',(-0.018917,0.04025,0.00755));
#1826=CARTESIAN_POINT('',(-0.018917,0.04025,0.0061));
#1827=CARTESIAN_POINT('',(0.036,0.04025,0.0065));
#1828=CARTESIAN_POINT('',(0.036,0.04025,0.00513502862304449));
#1829=CARTESIAN_POINT('',(0.,0.04025,0.00513502862304449));
#1830=CARTESIAN_POINT('',(-0.036,0.04025,0.0051350286230445));
#1831=CARTESIAN_POINT('',(-0.036,0.04025,0.0065));
#1832=CARTESIAN_POINT('',(-0.025357,0.04025,0.00755));
#1833=CARTESIAN_POINT('',(-0.025357,0.04025,0.0061));
#1834=CARTESIAN_POINT('',(-0.022137,0.04025,0.0061));
#1835=CARTESIAN_POINT('',(-0.018917,0.058867,0.0075399999999999));
#1836=CARTESIAN_POINT('',(-0.017667,0.058867,0.0075399999999999));
#1837=CARTESIAN_POINT('',(-0.017667,0.04025,0.00754));
#1838=CARTESIAN_POINT('',(-0.017667,0.03625,0.00754));
#1839=CARTESIAN_POINT('',(-0.018917,0.04025,0.00754));
#1840=CARTESIAN_POINT('',(-0.018917,0.04025,0.00629));
#1841=CARTESIAN_POINT('',(-0.018917,0.058867,0.0062899999999999));
#1842=CARTESIAN_POINT('',(-0.018917,0.03625,0.00629));
#1843=CARTESIAN_POINT('',(-0.018917,0.03625,0.00754));
#1844=CARTESIAN_POINT('',(-0.025357,0.058867,0.0075399999999999));
#1845=CARTESIAN_POINT('',(-0.025357,0.04025,0.00754));
#1846=CARTESIAN_POINT('',(-0.026607,0.04025,0.00754));
#1847=CARTESIAN_POINT('',(-0.025357,0.04025,0.00629));
#1848=CARTESIAN_POINT('',(-0.026607,0.058867,0.0075399999999999));
#1849=CARTESIAN_POINT('',(-0.026607,0.03625,0.00754));
#1850=CARTESIAN_POINT('',(-0.025357,0.03625,0.00754));
#1851=CARTESIAN_POINT('',(-0.025357,0.03625,0.00629));
#1852=CARTESIAN_POINT('',(-0.025357,0.058867,0.0062899999999999));
#1853=CARTESIAN_POINT('',(0.,0.03625,0.013));
#1854=CARTESIAN_POINT('',(-0.035,0.03625,0.013));
#1855=CARTESIAN_POINT('',(-0.035,0.03625,0.013));
#1856=CARTESIAN_POINT('',(-0.035,0.03625,0.003));
#1857=CARTESIAN_POINT('',(0.,0.03625,0.003));
#1858=CARTESIAN_POINT('',(0.035,0.03625,0.003));
#1859=CARTESIAN_POINT('',(0.035,0.03625,0.013));
#1860=CARTESIAN_POINT('',(0.035,0.03625,0.013));
#1861=CARTESIAN_POINT('',(0.,0.03625,0.013));
#1862=CARTESIAN_POINT('',(-0.018917,0.03625,0.00825));
#1863=CARTESIAN_POINT('',(-0.018917,0.03625,0.0095));
#1864=CARTESIAN_POINT('',(-0.017667,0.03625,0.00825));
#1865=CARTESIAN_POINT('',(-0.017667,0.03625,0.013));
#1866=CARTESIAN_POINT('',(1.77406805715651E-32,0.03625,0.00629));
#1867=CARTESIAN_POINT('',(-0.026607,0.03625,0.013));
#1868=CARTESIAN_POINT('',(-0.026607,0.03625,0.00825));
#1869=CARTESIAN_POINT('',(-0.025357,0.03625,0.00825));
#1870=CARTESIAN_POINT('',(-0.025357,0.03625,0.0095));
#1871=CARTESIAN_POINT('',(9.25370819679258E-33,0.03625,0.0095));
#1872=CARTESIAN_POINT('',(0.,-0.04125,0.003));
#1873=CARTESIAN_POINT('',(-0.037,-0.04125,0.));
#1874=CARTESIAN_POINT('',(-0.037,-0.04125,0.00513502862304451));
#1875=CARTESIAN_POINT('',(-0.037,-0.04125,0.003));
#1876=CARTESIAN_POINT('',(0.037,-0.04125,0.003));
#1877=CARTESIAN_POINT('',(0.037,-0.04125,0.003));
#1878=CARTESIAN_POINT('',(0.037,-0.04125,0.003));
#1879=CARTESIAN_POINT('',(0.037,-0.04125,0.00513502862304451));
#1880=CARTESIAN_POINT('',(-0.039,-0.04125,0.00513502862304451));
#1881=CARTESIAN_POINT('',(-0.039,0.,0.0065));
#1882=CARTESIAN_POINT('',(-0.039,-0.0005,0.0051350286230445));
#1883=CARTESIAN_POINT('',(-0.039,0.03725,0.00513502862304449));
#1884=CARTESIAN_POINT('',(-0.039,-0.03725,0.00513502862304451));
#1885=CARTESIAN_POINT('',(-0.039,-0.03725,0.0065));
#1886=CARTESIAN_POINT('',(-0.039,0.03725,0.0065));
#1887=CARTESIAN_POINT('',(0.039,0.,0.0065));
#1888=CARTESIAN_POINT('',(0.039,-0.0005,0.0051350286230445));
#1889=CARTESIAN_POINT('',(0.039,0.03725,0.00513502862304449));
#1890=CARTESIAN_POINT('',(0.039,-0.03725,0.00513502862304451));
#1891=CARTESIAN_POINT('',(0.039,0.03725,0.0065));
#1892=CARTESIAN_POINT('',(0.039,-0.03725,0.0065));
#1893=CARTESIAN_POINT('',(0.04,0.,0.003));
#1894=CARTESIAN_POINT('',(0.04,0.03825,0.013));
#1895=CARTESIAN_POINT('',(0.04,0.03825,0.013));
#1896=CARTESIAN_POINT('',(0.04,0.,0.013));
#1897=CARTESIAN_POINT('',(0.04,-0.03825,0.013));
#1898=CARTESIAN_POINT('',(0.04,-0.03825,0.003));
#1899=CARTESIAN_POINT('',(0.04,0.,0.003));
#1900=CARTESIAN_POINT('',(0.04,-0.03825,0.003));
#1901=CARTESIAN_POINT('',(0.04,-0.03825,0.00513502862304449));
#1902=CARTESIAN_POINT('',(0.04,-0.03825,0.003));
#1903=CARTESIAN_POINT('',(0.04,0.03825,0.003));
#1904=CARTESIAN_POINT('',(0.04,0.03825,0.003));
#1905=CARTESIAN_POINT('',(0.04,0.03825,0.00513502862304449));
#1906=CARTESIAN_POINT('',(0.04,0.03825,0.00513502862304449));
#1907=CARTESIAN_POINT('',(0.04,0.04025,0.00513502862304449));
#1908=CARTESIAN_POINT('',(0.,-0.04125,0.003));
#1909=CARTESIAN_POINT('',(0.,-0.04125,0.013));
#1910=CARTESIAN_POINT('',(0.037,-0.04125,0.013));
#1911=CARTESIAN_POINT('',(-0.037,-0.04125,0.013));
#1912=CARTESIAN_POINT('',(-0.037,-0.04125,0.00753140728920698));
#1913=CARTESIAN_POINT('',(0.037,-0.04125,0.003));
#1914=CARTESIAN_POINT('',(-0.04,0.,0.003));
#1915=CARTESIAN_POINT('',(-0.04,0.03825,0.003));
#1916=CARTESIAN_POINT('',(-0.04,0.03825,0.0051350286230445));
#1917=CARTESIAN_POINT('',(-0.04,0.03825,0.003));
#1918=CARTESIAN_POINT('',(-0.04,0.,0.003));
#1919=CARTESIAN_POINT('',(-0.04,-0.03825,0.003));
#1920=CARTESIAN_POINT('',(-0.04,-0.03825,0.00513502862304451));
#1921=CARTESIAN_POINT('',(-0.04,-0.03825,0.0051350286230445));
#1922=CARTESIAN_POINT('',(-0.04,0.04025,0.0051350286230445));
#1923=CARTESIAN_POINT('',(-0.04,0.,0.003));
#1924=CARTESIAN_POINT('',(-0.04,-0.03825,0.013));
#1925=CARTESIAN_POINT('',(-0.04,-0.03825,0.013));
#1926=CARTESIAN_POINT('',(-0.04,0.,0.013));
#1927=CARTESIAN_POINT('',(-0.04,0.03825,0.013));
#1928=CARTESIAN_POINT('',(-0.04,0.03825,0.003));
#1929=CARTESIAN_POINT('',(0.,0.04125,0.003));
#1930=CARTESIAN_POINT('',(0.037,0.04125,0.));
#1931=CARTESIAN_POINT('',(0.037,0.04125,0.00513502862304449));
#1932=CARTESIAN_POINT('',(0.037,0.04125,0.003));
#1933=CARTESIAN_POINT('',(0.,0.04125,0.003));
#1934=CARTESIAN_POINT('',(-0.037,0.04125,0.003));
#1935=CARTESIAN_POINT('',(-0.037,0.04125,0.003));
#1936=CARTESIAN_POINT('',(-0.037,0.04125,0.0051350286230445));
#1937=CARTESIAN_POINT('',(0.,0.04125,0.00513502862304449));
#1938=CARTESIAN_POINT('',(0.03705,-0.0383,0.003));
#1939=CARTESIAN_POINT('',(0.0384991376746189,-0.0382499999999989,0.000401426115628379));
#1940=CARTESIAN_POINT('',(0.0385129341110716,-0.0386498587167719,0.00040938538812999));
#1941=CARTESIAN_POINT('',(0.0381950715477023,-0.0394447615547802,0.000418625035785627));
#1942=CARTESIAN_POINT('',(0.0373971391080566,-0.0397628402756558,0.000409331253742125));
#1943=CARTESIAN_POINT('',(0.037,-0.0397491376746189,0.000401426115628401));
#1944=CARTESIAN_POINT('',(0.0384991376746189,-0.0382499999999989,0.000401426115628379));
#1945=CARTESIAN_POINT('',(0.037,-0.0397491376746189,0.000401426115628401));
#1946=CARTESIAN_POINT('',(0.037,-0.0397491376746189,0.000401426115628401));
#1947=CARTESIAN_POINT('',(0.0366092950930245,-0.0397356570746105,0.000393649051650832));
#1948=CARTESIAN_POINT('',(0.0358831812626579,-0.0393944323823781,0.00017542722555567));
#1949=CARTESIAN_POINT('',(0.0355875280694489,-0.0386364634526847,-1.11710565949406E-18));
#1950=CARTESIAN_POINT('',(0.0356008623253811,-0.03825,-1.11710565949406E-18));
#1951=CARTESIAN_POINT('',(0.0356008623253811,-0.03825,0.));
#1952=CARTESIAN_POINT('',(0.03705,-0.0383,0.));
#1953=CARTESIAN_POINT('',(0.037,-0.0368508623253811,0.));
#1954=CARTESIAN_POINT('',(0.037,-0.0368508623253811,0.));
#1955=CARTESIAN_POINT('',(0.0373906339156835,-0.0368373841748048,0.));
#1956=CARTESIAN_POINT('',(0.0381454844350396,-0.037133979987376,0.000176571742268295));
#1957=CARTESIAN_POINT('',(0.0384858147224486,-0.0378638641614636,0.000393739999926288));
#1958=CARTESIAN_POINT('',(0.0384991376746189,-0.0382499999999989,0.000401426115628378));
#1959=CARTESIAN_POINT('',(0.03705,-0.0383,0.013));
#1960=CARTESIAN_POINT('',(0.0385,-0.0383,0.013));
#1961=CARTESIAN_POINT('',(-0.03705,-0.0383,0.003));
#1962=CARTESIAN_POINT('',(-0.0369999999999989,-0.0397491376746189,0.000401426115628379));
#1963=CARTESIAN_POINT('',(-0.0373998587167719,-0.0397629341110716,0.00040938538812999));
#1964=CARTESIAN_POINT('',(-0.0381947615547802,-0.0394450715477023,0.000418625035785628));
#1965=CARTESIAN_POINT('',(-0.0385128402756558,-0.0386471391080566,0.000409331253742125));
#1966=CARTESIAN_POINT('',(-0.038499137674619,-0.03825,0.000401426115628401));
#1967=CARTESIAN_POINT('',(-0.0369999999999989,-0.0397491376746189,0.000401426115628379));
#1968=CARTESIAN_POINT('',(-0.0384991376746189,-0.03825,0.000401426115628401));
#1969=CARTESIAN_POINT('',(-0.0384991376746189,-0.03825,0.000401426115628401));
#1970=CARTESIAN_POINT('',(-0.0384856570746104,-0.0378592950930245,0.000393649051650832));
#1971=CARTESIAN_POINT('',(-0.0381444323823781,-0.0371331812626579,0.00017542722555567));
#1972=CARTESIAN_POINT('',(-0.0373864634526847,-0.0368375280694489,-1.1645395045403E-18));
#1973=CARTESIAN_POINT('',(-0.037,-0.0368508623253811,-1.1645395045403E-18));
#1974=CARTESIAN_POINT('',(-0.037,-0.0368508623253811,0.));
#1975=CARTESIAN_POINT('',(-0.03705,-0.0383,0.));
#1976=CARTESIAN_POINT('',(-0.0356008623253811,-0.03825,0.));
#1977=CARTESIAN_POINT('',(-0.0356008623253811,-0.03825,0.));
#1978=CARTESIAN_POINT('',(-0.0355873841748048,-0.0386406339156835,0.));
#1979=CARTESIAN_POINT('',(-0.035883979987376,-0.0393954844350396,0.000176571742268295));
#1980=CARTESIAN_POINT('',(-0.0366138641614636,-0.0397358147224486,0.000393739999926288));
#1981=CARTESIAN_POINT('',(-0.0369999999999989,-0.0397491376746189,0.000401426115628378));
#1982=CARTESIAN_POINT('',(-0.03705,-0.0383,0.013));
#1983=CARTESIAN_POINT('',(-0.0356,-0.0383,0.013));
#1984=CARTESIAN_POINT('',(-0.03705,0.0383,0.003));
#1985=CARTESIAN_POINT('',(-0.0384991376746189,0.0382499999999989,0.000401426115628379));
#1986=CARTESIAN_POINT('',(-0.0385129341110716,0.0386498587167719,0.00040938538812999));
#1987=CARTESIAN_POINT('',(-0.0381950715477023,0.0394447615547802,0.000418625035785627));
#1988=CARTESIAN_POINT('',(-0.0373971391080566,0.0397628402756558,0.000409331253742125));
#1989=CARTESIAN_POINT('',(-0.037,0.0397491376746189,0.000401426115628401));
#1990=CARTESIAN_POINT('',(-0.0384991376746189,0.0382499999999989,0.000401426115628379));
#1991=CARTESIAN_POINT('',(-0.037,0.0397491376746189,0.000401426115628401));
#1992=CARTESIAN_POINT('',(-0.037,0.0397491376746189,0.000401426115628401));
#1993=CARTESIAN_POINT('',(-0.0366092950930245,0.0397356570746105,0.000393649051650832));
#1994=CARTESIAN_POINT('',(-0.0358831812626579,0.0393944323823781,0.00017542722555567));
#1995=CARTESIAN_POINT('',(-0.0355875280694489,0.0386364634526847,-1.11710565949406E-18));
#1996=CARTESIAN_POINT('',(-0.0356008623253811,0.03825,-1.11710565949406E-18));
#1997=CARTESIAN_POINT('',(-0.0356008623253811,0.03825,0.));
#1998=CARTESIAN_POINT('',(-0.03705,0.0383,0.));
#1999=CARTESIAN_POINT('',(-0.037,0.0368508623253811,0.));
#2000=CARTESIAN_POINT('',(-0.037,0.0368508623253811,0.));
#2001=CARTESIAN_POINT('',(-0.0373906339156835,0.0368373841748048,0.));
#2002=CARTESIAN_POINT('',(-0.0381454844350396,0.037133979987376,0.000176571742268295));
#2003=CARTESIAN_POINT('',(-0.0384858147224486,0.0378638641614636,0.000393739999926288));
#2004=CARTESIAN_POINT('',(-0.0384991376746189,0.0382499999999989,0.000401426115628378));
#2005=CARTESIAN_POINT('',(-0.03705,0.0383,0.013));
#2006=CARTESIAN_POINT('',(-0.0356,0.0383,0.013));
#2007=CARTESIAN_POINT('',(0.03705,0.0383,0.003));
#2008=CARTESIAN_POINT('',(0.03705,0.0383,0.));
#2009=CARTESIAN_POINT('',(0.0356008623253811,0.03825,0.));
#2010=CARTESIAN_POINT('',(0.037,0.0368508623253811,0.));
#2011=CARTESIAN_POINT('',(0.0356008623253811,0.03825,0.));
#2012=CARTESIAN_POINT('',(0.0355873841748048,0.0386406339156835,0.));
#2013=CARTESIAN_POINT('',(0.035883979987376,0.0393954844350396,0.000176571742268295));
#2014=CARTESIAN_POINT('',(0.0366138641614636,0.0397358147224486,0.000393739999926288));
#2015=CARTESIAN_POINT('',(0.0369999999999989,0.0397491376746189,0.000401426115628378));
#2016=CARTESIAN_POINT('',(0.0369999999999989,0.0397491376746189,0.000401426115628379));
#2017=CARTESIAN_POINT('',(0.0369999999999989,0.0397491376746189,0.000401426115628379));
#2018=CARTESIAN_POINT('',(0.0373998587167719,0.0397629341110716,0.00040938538812999));
#2019=CARTESIAN_POINT('',(0.0381947615547802,0.0394450715477023,0.000418625035785628));
#2020=CARTESIAN_POINT('',(0.0385128402756558,0.0386471391080566,0.000409331253742125));
#2021=CARTESIAN_POINT('',(0.038499137674619,0.03825,0.000401426115628401));
#2022=CARTESIAN_POINT('',(0.0384991376746189,0.03825,0.000401426115628401));
#2023=CARTESIAN_POINT('',(0.0384991376746189,0.03825,0.000401426115628401));
#2024=CARTESIAN_POINT('',(0.0384856570746104,0.0378592950930245,0.000393649051650832));
#2025=CARTESIAN_POINT('',(0.0381444323823781,0.0371331812626579,0.00017542722555567));
#2026=CARTESIAN_POINT('',(0.0373864634526847,0.0368375280694489,-1.1645395045403E-18));
#2027=CARTESIAN_POINT('',(0.037,0.0368508623253811,-1.1645395045403E-18));
#2028=CARTESIAN_POINT('',(0.03705,0.0383,0.013));
#2029=CARTESIAN_POINT('',(0.0385,0.0383,0.013));
#2030=CARTESIAN_POINT('',(0.,0.,0.));
#2031=CARTESIAN_POINT('',(0.,0.03825,0.));
#2032=CARTESIAN_POINT('',(0.037,-0.03825,0.));
#2033=CARTESIAN_POINT('',(-0.037,-0.03825,0.));
#2034=CARTESIAN_POINT('',(-0.037,0.,0.));
#2035=CARTESIAN_POINT('',(0.035,0.,0.013));
#2036=CARTESIAN_POINT('',(0.035,0.,0.003));
#2037=CARTESIAN_POINT('',(0.035,-0.03625,0.003));
#2038=CARTESIAN_POINT('',(0.035,-0.03625,0.013));
#2039=CARTESIAN_POINT('',(0.035,-0.03625,0.013));
#2040=CARTESIAN_POINT('',(0.035,0.,0.013));
#2041=CARTESIAN_POINT('',(0.,-0.03625,0.013));
#2042=CARTESIAN_POINT('',(0.,-0.03625,0.003));
#2043=CARTESIAN_POINT('',(-0.035,-0.03625,0.003));
#2044=CARTESIAN_POINT('',(-0.035,-0.03625,0.013));
#2045=CARTESIAN_POINT('',(-0.035,-0.03625,0.013));
#2046=CARTESIAN_POINT('',(0.,-0.03625,0.013));
#2047=CARTESIAN_POINT('',(-0.035,0.,0.013));
#2048=CARTESIAN_POINT('',(-0.035,0.,0.003));
#2049=CARTESIAN_POINT('',(-0.035,0.,0.013));
#2050=CARTESIAN_POINT('',(0.,0.,0.013));
#2051=CARTESIAN_POINT('',(-0.037,-0.03825,0.013));
#2052=CARTESIAN_POINT('',(0.037,-0.03825,0.013));
#2053=CARTESIAN_POINT('',(0.037,0.03825,0.013));
#2054=CARTESIAN_POINT('',(-0.037,0.03825,0.013));
#2055=CARTESIAN_POINT('',(0.,0.,0.003));
#2056=CARTESIAN_POINT('',(0.,0.04025,0.00513502862304449));
#2057=CARTESIAN_POINT('',(-0.037,-0.03825,0.0051350286230445));
#2058=CARTESIAN_POINT('',(0.037,-0.03825,0.00513502862304449));
#2059=CARTESIAN_POINT('',(0.037,0.03825,0.00513502862304449));
#2060=CARTESIAN_POINT('',(-0.037,0.03825,0.0051350286230445));
#2061=CARTESIAN_POINT('',(0.,-0.04025,0.00513502862304449));
#2062=CARTESIAN_POINT('',(-0.036,-0.04025,0.0051350286230445));
#2063=CARTESIAN_POINT('',(0.036,-0.04025,0.00513502862304449));
#2064=CARTESIAN_POINT('',(-0.036,-0.03725,0.0051350286230445));
#2065=CARTESIAN_POINT('',(-0.036,0.03725,0.0051350286230445));
#2066=CARTESIAN_POINT('',(0.036,0.03725,0.00513502862304449));
#2067=CARTESIAN_POINT('',(0.036,-0.03725,0.00513502862304449));
#2068=CARTESIAN_POINT('',(0.,-0.04025,0.0065));
#2069=CARTESIAN_POINT('',(-0.036,-0.04025,0.0065));
#2070=CARTESIAN_POINT('',(0.036,-0.04025,0.0065));
#2071=CARTESIAN_POINT('',(-0.037,-0.03825,0.003));
#2072=CARTESIAN_POINT('',(-0.037,-0.03825,0.003));
#2073=CARTESIAN_POINT('',(-0.037,-0.03825,0.003));
#2074=CARTESIAN_POINT('',(-0.037,0.03825,0.003));
#2075=CARTESIAN_POINT('',(-0.037,0.03825,0.003));
#2076=CARTESIAN_POINT('',(-0.037,0.03825,0.003));
#2077=CARTESIAN_POINT('',(0.037,0.03825,0.003));
#2078=CARTESIAN_POINT('',(0.037,0.03825,0.003));
#2079=CARTESIAN_POINT('',(0.037,0.03825,0.003));
#2080=CARTESIAN_POINT('',(0.037,-0.03825,0.003));
#2081=CARTESIAN_POINT('',(0.037,-0.03825,0.003));
#2082=CARTESIAN_POINT('',(0.037,-0.03825,0.003));
#2083=CARTESIAN_POINT('',(-0.036,-0.03725,0.0065));
#2084=CARTESIAN_POINT('',(-0.036,0.03725,0.0065));
#2085=CARTESIAN_POINT('',(0.036,0.03725,0.0065));
#2086=CARTESIAN_POINT('',(0.036,-0.03725,0.0065));
#2087=CARTESIAN_POINT('',(-0.018917,0.058867,0.0082499999999999));
#2088=CARTESIAN_POINT('',(-0.018917,0.058867,0.0094999999999999));
#2089=CARTESIAN_POINT('',(-0.018917,0.04225,0.0095));
#2090=CARTESIAN_POINT('',(-0.018917,0.04225,0.00825));
#2091=CARTESIAN_POINT('',(-0.017667,0.04225,0.00825));
#2092=CARTESIAN_POINT('',(-0.017667,0.058867,0.0082499999999999));
#2093=CARTESIAN_POINT('',(-0.022137,0.058867,0.0094999999999999));
#2094=CARTESIAN_POINT('',(-0.025357,0.058867,0.0094999999999999));
#2095=CARTESIAN_POINT('',(-0.025357,0.04225,0.0095));
#2096=CARTESIAN_POINT('',(-1.71854580797574E-32,0.04225,0.0095));
#2097=CARTESIAN_POINT('',(-0.025357,0.058867,0.0082499999999999));
#2098=CARTESIAN_POINT('',(-0.026607,0.058867,0.0082499999999999));
#2099=CARTESIAN_POINT('',(-0.026607,0.04225,0.00825));
#2100=CARTESIAN_POINT('',(-0.025357,0.04225,0.00825));
#2101=CARTESIAN_POINT('',(-0.026607,0.058867,0.0078949999999999));
#2102=CARTESIAN_POINT('',(-0.026607,0.04225,0.00755));
#2103=CARTESIAN_POINT('',(-0.026607,0.04225,0.00755));
#2104=CARTESIAN_POINT('',(-0.026607,0.04025,0.00755));
#2105=CARTESIAN_POINT('',(-0.026607,0.04225,0.003));
#2106=CARTESIAN_POINT('',(-0.026607,0.04025,0.0078949999999999));
#2107=CARTESIAN_POINT('',(-0.022137,0.058867,0.0062899999999999));
#2108=CARTESIAN_POINT('',(5.55222491807666E-34,0.04025,0.00629));
#2109=CARTESIAN_POINT('',(-0.017667,0.058867,0.0078949999999999));
#2110=CARTESIAN_POINT('',(-0.017667,0.058867,0.00755));
#2111=CARTESIAN_POINT('',(-0.017667,0.04025,0.00755));
#2112=CARTESIAN_POINT('',(-0.017667,0.04225,0.00755));
#2113=CARTESIAN_POINT('',(-0.017667,0.04025,0.0078949999999999));
#2114=CARTESIAN_POINT('',(-0.017667,0.04225,0.003));
#2115=CARTESIAN_POINT('',(-0.018917,0.04225,0.00825));
#2116=CARTESIAN_POINT('',(-0.017467,0.04225,0.00825));
#2117=CARTESIAN_POINT('',(-0.017467,0.04225,0.00825));
#2118=CARTESIAN_POINT('',(-0.018917,0.04225,0.00825));
#2119=CARTESIAN_POINT('',(-0.018917,0.04225,0.0097));
#2120=CARTESIAN_POINT('',(-0.018917,0.04225,0.0097));
#2121=CARTESIAN_POINT('',(-0.025357,0.04225,0.00825));
#2122=CARTESIAN_POINT('',(-0.025357,0.04225,0.0097));
#2123=CARTESIAN_POINT('',(-0.025357,0.04225,0.0097));
#2124=CARTESIAN_POINT('',(-0.025357,0.04225,0.00825));
#2125=CARTESIAN_POINT('',(-0.026807,0.04225,0.00825));
#2126=CARTESIAN_POINT('',(-0.026807,0.04225,0.00825));
#2127=CARTESIAN_POINT('',(-0.022137,0.04225,0.0097));
#2128=CARTESIAN_POINT('',(-0.022137,0.04225,0.0097));
#2129=CARTESIAN_POINT('',(0.,0.04225,0.0102657036446035));
#2130=CARTESIAN_POINT('',(-0.025357,0.04225,0.00755));
#2131=CARTESIAN_POINT('',(-0.025357,0.04225,0.0063));
#2132=CARTESIAN_POINT('',(-1.71854580797574E-32,0.04225,0.0063));
#2133=CARTESIAN_POINT('',(-0.018917,0.04225,0.0063));
#2134=CARTESIAN_POINT('',(-0.018917,0.04225,0.00755));
#2135=CARTESIAN_POINT('',(-0.017467,0.04225,0.0079));
#2136=CARTESIAN_POINT('',(-0.017467,0.04225,0.00755));
#2137=CARTESIAN_POINT('',(-0.018917,0.04225,0.00755));
#2138=CARTESIAN_POINT('',(-0.018917,0.04225,0.0061));
#2139=CARTESIAN_POINT('',(-0.022137,0.04225,0.0061));
#2140=CARTESIAN_POINT('',(-0.025357,0.04225,0.0061));
#2141=CARTESIAN_POINT('',(-0.025357,0.04225,0.00755));
#2142=CARTESIAN_POINT('',(-0.026807,0.04225,0.00755));
#2143=CARTESIAN_POINT('',(-0.026807,0.04225,0.0079));
#2144=CARTESIAN_POINT('',(0.,-0.03825,0.003));
#2145=CARTESIAN_POINT('',(0.037,-0.03825,0.003));
#2146=CARTESIAN_POINT('',(-0.037,-0.03825,0.003));
#2147=CARTESIAN_POINT('',(0.037,-0.03825,0.003));
#2148=CARTESIAN_POINT('',(0.037,-0.03825,0.003));
#2149=CARTESIAN_POINT('',(-0.037,-0.03825,0.003));
#2150=CARTESIAN_POINT('',(-0.037,-0.03825,0.003));
#2151=CARTESIAN_POINT('',(0.037,0.,0.003));
#2152=CARTESIAN_POINT('',(0.037,0.03825,0.003));
#2153=CARTESIAN_POINT('',(-0.037,0.,0.003));
#2154=CARTESIAN_POINT('',(-0.037,0.03825,0.003));
#2155=CARTESIAN_POINT('',(0.037,0.03825,0.003));
#2156=CARTESIAN_POINT('',(0.037,0.03825,0.003));
#2157=CARTESIAN_POINT('',(-0.037,0.03825,0.003));
#2158=CARTESIAN_POINT('',(-0.037,0.03825,0.003));
#2159=CARTESIAN_POINT('',(0.,0.03825,0.003));
#2160=CARTESIAN_POINT('',(-0.018917,0.04225,0.00755));
#2161=CARTESIAN_POINT('',(-0.017467,0.04225,0.00755));
#2162=CARTESIAN_POINT('',(-0.018917,0.04225,0.0061));
#2163=CARTESIAN_POINT('',(-0.025357,0.04225,0.00755));
#2164=CARTESIAN_POINT('',(-0.026807,0.04225,0.00755));
#2165=CARTESIAN_POINT('',(-0.025357,0.04225,0.0061));
#2166=CARTESIAN_POINT('',(-0.022137,0.04225,0.0061));
#2167=CARTESIAN_POINT('',(-0.025357,0.04225,0.00755));
#2168=CARTESIAN_POINT('',(-0.025357,0.04025,0.00755));
#2169=CARTESIAN_POINT('',(-0.025357,0.04025,0.0063));
#2170=CARTESIAN_POINT('',(-0.025357,0.04225,0.0063));
#2171=CARTESIAN_POINT('',(-1.71854580797574E-32,0.04225,0.0063));
#2172=CARTESIAN_POINT('',(-1.71854580797574E-32,0.04025,0.0063));
#2173=CARTESIAN_POINT('',(-0.018917,0.04025,0.0063));
#2174=CARTESIAN_POINT('',(-0.018917,0.04225,0.0063));
#2175=CARTESIAN_POINT('',(-0.018917,0.04225,0.00755));
#2176=CARTESIAN_POINT('',(-0.018917,0.04025,0.00755));
#2177=CARTESIAN_POINT('',(0.,0.04025,0.00553429635539651));
#2178=CARTESIAN_POINT('',(-0.026807,0.04225,0.0079));
#2179=CARTESIAN_POINT('',(-0.017467,0.04225,0.0079));
#2180=MECHANICAL_DESIGN_GEOMETRIC_PRESENTATION_REPRESENTATION('',(#1257),
#2181);
#2181=(
GEOMETRIC_REPRESENTATION_CONTEXT(3)
GLOBAL_UNCERTAINTY_ASSIGNED_CONTEXT((#2182))
GLOBAL_UNIT_ASSIGNED_CONTEXT((#2185,#2184,#2183))
REPRESENTATION_CONTEXT('Part 101','TOP_LEVEL_ASSEMBLY_PART')
);
#2182=UNCERTAINTY_MEASURE_WITH_UNIT(LENGTH_MEASURE(2.E-5),#2185,
'DISTANCE_ACCURACY_VALUE','Maximum Tolerance applied to model');
#2183=(
NAMED_UNIT(*)
SI_UNIT($,.STERADIAN.)
SOLID_ANGLE_UNIT()
);
#2184=(
NAMED_UNIT(*)
PLANE_ANGLE_UNIT()
SI_UNIT($,.RADIAN.)
);
#2185=(
LENGTH_UNIT()
NAMED_UNIT(*)
SI_UNIT($,.METRE.)
);
#2186=PRODUCT_DEFINITION_SHAPE('','',#2187);
#2187=PRODUCT_DEFINITION('','',#2189,#2188);
#2188=PRODUCT_DEFINITION_CONTEXT('',#2195,'design');
#2189=PRODUCT_DEFINITION_FORMATION_WITH_SPECIFIED_SOURCE('','',#2191,
 .NOT_KNOWN.);
#2190=PRODUCT_RELATED_PRODUCT_CATEGORY('','',(#2191));
#2191=PRODUCT('Part 101','Part 101','Part 101',(#2193));
#2192=PRODUCT_CATEGORY('','');
#2193=PRODUCT_CONTEXT('',#2195,'mechanical');
#2194=APPLICATION_PROTOCOL_DEFINITION('international standard',
'ap242_managed_model_based_3d_engineering',2020,#2195);
#2195=APPLICATION_CONTEXT('managed model based 3d engineering');
ENDSEC;
END-ISO-10303-21;
